<svg xmlns="http://www.w3.org/2000/svg" xmlns:xlink="http://www.w3.org/1999/xlink" viewBox="0 0 425.81 319.2"><defs><style>.cls-1,.cls-13,.cls-14,.cls-16,.cls-20{fill:none;}.cls-19,.cls-2{fill:#0f8;}.cls-10,.cls-11,.cls-12,.cls-3,.cls-4,.cls-5,.cls-6{fill:#fff;}.cls-3{opacity:0.8;}.cls-10,.cls-20,.cls-3,.cls-4,.cls-5{isolation:isolate;}.cls-4{opacity:0.6;}.cls-5,.cls-7{opacity:0.5;}.cls-8{clip-path:url(#clip-path);}.cls-18,.cls-9{fill:#263238;}.cls-10{opacity:0.18;}.cls-11,.cls-12,.cls-16,.cls-18,.cls-19{stroke:#263238;}.cls-11,.cls-12,.cls-13,.cls-14,.cls-16,.cls-18,.cls-19,.cls-20{stroke-linecap:round;stroke-linejoin:round;}.cls-12,.cls-14{stroke-width:0.75px;}.cls-13,.cls-14{stroke:#fff;}.cls-15{clip-path:url(#clip-path-2);}.cls-17{clip-path:url(#clip-path-3);}.cls-20{stroke:#000;opacity:0.35;}</style><clipPath id="clip-path" transform="translate(7.12)"><path class="cls-1" d="M333,35.92C295,10.18,245.56-1.64,201.48.18c-97,4-138,51-129,68s-4,26-45,55-51,142,77,170,254,8,273-19-34-70-31-85,60-28,44-79C380.56,78.57,359.54,53.86,333,35.92Z"/></clipPath><clipPath id="clip-path-2" transform="translate(7.12)"><path class="cls-1" d="M97.29,131.08a5.3,5.3,0,0,1-.1.87c-.33,2.89-1.35,12.1-1.17,12.28s4.24-4.46,9.11-2.34a37.69,37.69,0,0,0,16.74,3.61c7.42,0,12.51-2.55,15.9-2.55a38.49,38.49,0,0,1,8,1.28s-4.87-5.73-6.14-8.48a41.83,41.83,0,0,1-1.91-4.88s-18.23,0-27.55.43S97.29,131.08,97.29,131.08Z"/></clipPath><clipPath id="clip-path-3" transform="translate(7.12)"><path class="cls-1" d="M133.74,74.71s10-.42,11.66.63,2.12,7.42,3.81,12.09a62.66,62.66,0,0,1,2.55,10s2.54-.85,3.6,6.14-1.06,11.66-3,14.41-4.87,4.67-12.5.85c0,0,1.91,4,1.91,5.94s-2.76,4-2.76,4a259.4,259.4,0,0,1-26.28,1.91c-13.35.21-15.68-1.06-16.32-3S95.35,96.1,96,88.05s6.36-14,10.6-15.47S133.74,74.71,133.74,74.71Z"/></clipPath></defs><g id="Camada_2" data-name="Camada 2"><g id="Camada_1-2" data-name="Camada 1"><g id="freepik--background-simple--inject-229"><path class="cls-2" d="M333,35.92C295,10.18,245.56-1.64,201.48.18c-97,4-138,51-129,68s-4,26-45,55-51,142,77,170,254,8,273-19-34-70-31-85,60-28,44-79C380.56,78.57,359.54,53.86,333,35.92Z" transform="translate(7.12)"/><path class="cls-3" d="M333,35.92C295,10.18,245.56-1.64,201.48.18c-97,4-138,51-129,68s-4,26-45,55-51,142,77,170,254,8,273-19-34-70-31-85,60-28,44-79C380.56,78.57,359.54,53.86,333,35.92Z" transform="translate(7.12)"/></g><g id="freepik--Mountains--inject-229"><path class="cls-2" d="M346.37,190.29a7,7,0,0,1,.11-1.11c.67-3.34,4-6.59,8.66-10.18-15.12-7.51-33.87-16.69-38.42-18.31-7.92-2.83-30.52,11.3-36.17,13.56s-20.92,5.65-27.13,2.26-54.26-35-65-36.74S144.34,159,139.25,159.56,103.08,150,89,148.25c-9.48-1.14-57.3,31.47-87.76,53.06a97,97,0,0,0,25.2,51.33c7.48-1.89,13.32-3.65,15.09-4.35C47.13,246,63,240.94,68,237.55s139.6-26,144.12-27.69-9-7.92-6.22-11.31C208,196.06,298.48,192.18,346.37,190.29Z" transform="translate(7.12)"/><path class="cls-4" d="M346.37,190.29a7,7,0,0,1,.11-1.11c.67-3.34,4-6.59,8.66-10.18-15.12-7.51-33.87-16.69-38.42-18.31-7.92-2.83-30.52,11.3-36.17,13.56s-20.92,5.65-27.13,2.26-54.26-35-65-36.74S144.34,159,139.25,159.56,103.08,150,89,148.25c-9.48-1.14-57.3,31.47-87.76,53.06a97,97,0,0,0,25.2,51.33c7.48-1.89,13.32-3.65,15.09-4.35C47.13,246,63,240.94,68,237.55s139.6-26,144.12-27.69-9-7.92-6.22-11.31C208,196.06,298.48,192.18,346.37,190.29Z" transform="translate(7.12)"/><path class="cls-2" d="M361.35,174.4c-7.7-2.91-13.37-4.82-14.68-4.67-5.09.56-73.91,21.15-73.91,21.15s-48.17,4.28-57.77,7.67.56,1.7,10.17,9.61S175.42,224,163,228.51s25.43,13,46.34,22S120,262.38,120,262.38l-3.65,33.23c123.81,24.32,242.68,4.73,261.09-21.43,19-27-34-70-31-85C347.42,184.47,353.69,180,361.35,174.4Z" transform="translate(7.12)"/><path class="cls-5" d="M361.35,174.4c-7.7-2.91-13.37-4.82-14.68-4.67-5.09.56-73.91,21.15-73.91,21.15s-48.17,4.28-57.77,7.67.56,1.7,10.17,9.61S175.42,224,163,228.51s25.43,13,46.34,22S120,262.38,120,262.38l-3.65,33.23c123.81,24.32,242.68,4.73,261.09-21.43,19-27-34-70-31-85C347.42,184.47,353.69,180,361.35,174.4Z" transform="translate(7.12)"/><path class="cls-6" d="M271.05,276c11.5-10.64-73.2-39.16-78.74-45.12s52.36-17.45,61.72-21.71-17.45-8.08-14.47-11.06,33.2-7.24,33.2-7.24-90.23,1.7-97,7.66,21.24,7.64,13.15,10.64-90.23,7.66-94.49,11.92-5.11,6-11.92,6.81c-6.27.79-39.32,3.38-65.45,13.12,15.73,22.85,43.43,42.52,87.43,52.15,13.23,2.89,26.43,5.27,39.5,7.18,21-2.21,41.92-5.18,62.73-8.73,14.24-2.43,28.51-4.94,42.58-8.26C255.71,281.86,266,280.73,271.05,276Z" transform="translate(7.12)"/></g><g id="freepik--Clouds--inject-229"><path class="cls-2" d="M270.33,85.85c.67-.22-2.06-8.17-2.3-8.92-1.68-5.14-5.87-10.19-11.71-10.08s-12.58,8.24-18.41,4.93c-4.82-2.73-7.41-8-12.69-10.16-10-4-10,6.62-17.32,8.3-5.6,1.3-7.32-3.44-12.49.43s-1.72,5.6-7.31,6.46-6.46-.43-9.91.86-9.47,7.75-9.47,7.75-4.74-1.72-9,0a13.55,13.55,0,0,0-6,4.31H275.48S274.2,85,270.33,85.85Z" transform="translate(7.12)"/><path class="cls-2" d="M192.85,122.08c.21-.07-.64-2.56-.72-2.8-.53-1.61-1.84-3.2-3.67-3.16s-4,2.58-5.78,1.54c-1.51-.85-2.32-2.51-4-3.18-3.14-1.27-3.14,2.07-5.44,2.6-1.75.41-2.29-1.08-3.91.14s-.54,1.75-2.3,2-2-.13-3.11.27a12.84,12.84,0,0,0-3,2.44,4.45,4.45,0,0,0-2.84,0,4.26,4.26,0,0,0-1.89,1.35h38.29S194.07,121.81,192.85,122.08Z" transform="translate(7.12)"/><path class="cls-2" d="M280.31,158c.21-.07-.65-2.56-.72-2.79-.53-1.62-1.85-3.2-3.68-3.17s-3.94,2.59-5.77,1.55c-1.52-.86-2.33-2.52-4-3.19-3.13-1.26-3.13,2.08-5.43,2.61-1.76.4-2.3-1.08-3.92.13s-.54,1.76-2.29,2-2-.14-3.11.27a12.55,12.55,0,0,0-3,2.43,4.45,4.45,0,0,0-2.84,0,4.26,4.26,0,0,0-1.89,1.35h38.23S281.48,157.76,280.31,158Z" transform="translate(7.12)"/><path class="cls-2" d="M345.07,56.4c.32-.11-1-4-1.12-4.35-.82-2.5-2.86-5-5.7-4.9s-6.12,4-9,2.4c-2.35-1.33-3.61-3.91-6.18-5-4.86-2-4.87,3.22-8.43,4-2.72.63-3.56-1.67-6.07.21s-.84,2.73-3.57,3.15-3.14-.21-4.82.42-4.61,3.77-4.61,3.77a6.9,6.9,0,0,0-4.4,0,6.61,6.61,0,0,0-2.93,2.09h59.3S347,56,345.07,56.4Z" transform="translate(7.12)"/><g class="cls-7"><path class="cls-6" d="M270.33,85.85c.67-.22-2.06-8.17-2.3-8.92-1.68-5.14-5.87-10.19-11.71-10.08s-12.58,8.24-18.41,4.93c-4.82-2.73-7.41-8-12.69-10.16-10-4-10,6.62-17.32,8.3-5.6,1.3-7.32-3.44-12.49.43s-1.72,5.6-7.31,6.46-6.46-.43-9.91.86-9.47,7.75-9.47,7.75-4.74-1.72-9,0a13.55,13.55,0,0,0-6,4.31H275.48S274.2,85,270.33,85.85Z" transform="translate(7.12)"/><path class="cls-6" d="M192.85,122.08c.21-.07-.64-2.56-.72-2.8-.53-1.61-1.84-3.2-3.67-3.16s-4,2.58-5.78,1.54c-1.51-.85-2.32-2.51-4-3.18-3.14-1.27-3.14,2.07-5.44,2.6-1.75.41-2.29-1.08-3.91.14s-.54,1.75-2.3,2-2-.13-3.11.27a12.84,12.84,0,0,0-3,2.44,4.45,4.45,0,0,0-2.84,0,4.26,4.26,0,0,0-1.89,1.35h38.29S194.07,121.81,192.85,122.08Z" transform="translate(7.12)"/><path class="cls-6" d="M280.31,158c.21-.07-.65-2.56-.72-2.79-.53-1.62-1.85-3.2-3.68-3.17s-3.94,2.59-5.77,1.55c-1.52-.86-2.33-2.52-4-3.19-3.13-1.26-3.13,2.08-5.43,2.61-1.76.4-2.3-1.08-3.92.13s-.54,1.76-2.29,2-2-.14-3.11.27a12.55,12.55,0,0,0-3,2.43,4.45,4.45,0,0,0-2.84,0,4.26,4.26,0,0,0-1.89,1.35h38.23S281.48,157.76,280.31,158Z" transform="translate(7.12)"/><path class="cls-6" d="M345.07,56.4c.32-.11-1-4-1.12-4.35-.82-2.5-2.86-5-5.7-4.9s-6.12,4-9,2.4c-2.35-1.33-3.61-3.91-6.18-5-4.86-2-4.87,3.22-8.43,4-2.72.63-3.56-1.67-6.07.21s-.84,2.73-3.57,3.15-3.14-.21-4.82.42-4.61,3.77-4.61,3.77a6.9,6.9,0,0,0-4.4,0,6.61,6.61,0,0,0-2.93,2.09h59.3S347,56,345.07,56.4Z" transform="translate(7.12)"/></g></g><g id="freepik--Birds--inject-229"><path class="cls-2" d="M307.19,145.65s-.43-5-6.52-1.55C300.67,144.1,308.06,138.42,307.19,145.65Z" transform="translate(7.12)"/><path class="cls-2" d="M314.58,145.65s-.42-5-6.52-1.55C308.06,144.1,315.48,138.42,314.58,145.65Z" transform="translate(7.12)"/><path class="cls-2" d="M290.34,153.9s-.25-3-3.92-.94C286.42,153,290.87,149.54,290.34,153.9Z" transform="translate(7.12)"/><path class="cls-2" d="M294.79,153.9s-.25-3-3.92-.94C290.87,153,295.31,149.54,294.79,153.9Z" transform="translate(7.12)"/><path class="cls-2" d="M276.69,130.18s-.43-5-6.52-1.55C270.17,128.64,277.56,123,276.69,130.18Z" transform="translate(7.12)"/><path class="cls-2" d="M284.08,130.18s-.42-5-6.52-1.55C277.56,128.64,285,123,284.08,130.18Z" transform="translate(7.12)"/></g><g id="freepik--Plants--inject-229"><g class="cls-8"><path class="cls-2" d="M43.89,248.29s-.63-2.3-.65-2.45c-.24-1.75.32-5.27,2.09-6.13a2.33,2.33,0,0,1,3.08,1.16,2.6,2.6,0,0,1,.1.25,4.84,4.84,0,0,1-.84,4C46.83,246.44,43.9,248.29,43.89,248.29Z" transform="translate(7.12)"/><path class="cls-2" d="M79,247.53c-1.42.62-4.89.54-4.89.54s.75-2.27.81-2.41c.76-1.59,3.17-4.22,5.12-4a2.34,2.34,0,0,1,1.93,2.69,2,2,0,0,1,0,.24A4.91,4.91,0,0,1,79,247.53Z" transform="translate(7.12)"/><path class="cls-2" d="M73.57,240.5h0c.07.55.15,1.15.22,1.8.12,1.21.24,2.58.28,4.08a39.07,39.07,0,0,1-.12,4.84,31.12,31.12,0,0,1-.89,5.35v.06c.31-.49,1.22-1.83,1.3-1.92,1.16-1.33,4.17-3.23,6-2.46a2.33,2.33,0,0,1,1.12,3.1l-.12.22a4.88,4.88,0,0,1-3.58,2c-1.47.22-4.56-.68-4.81-.75A41.71,41.71,0,0,1,71.1,262c-.43,1-.89,2-1.36,2.94l.58-.83c1.15-1.33,4.16-3.23,6-2.46a2.35,2.35,0,0,1,1.11,3.12,1.28,1.28,0,0,1-.11.2,4.88,4.88,0,0,1-3.58,2,15.45,15.45,0,0,1-4.68-.72c-.18.37-.36.75-.55,1.12-.9,1.78-1.8,3.56-2.63,5.32-.29.63-.56,1.25-.83,1.88.26-.37.47-.68.51-.72,1.15-1.33,4.16-3.23,6-2.46a2.35,2.35,0,0,1,1.11,3.12,1.28,1.28,0,0,1-.11.2,4.92,4.92,0,0,1-3.59,2,14.57,14.57,0,0,1-4.54-.68c-.26.65-.52,1.3-.73,1.94-.14.43-.31.85-.42,1.3s-.25.88-.37,1.31c-.2.84-.42,1.71-.59,2.54-.13.58-.24,1.13-.35,1.68.28-.62.86-1.83.92-1.93.94-1.49,3.63-3.82,5.55-3.34A2.34,2.34,0,0,1,70,282.46a1.72,1.72,0,0,1-.07.21,4.83,4.83,0,0,1-3.23,2.53,15.71,15.71,0,0,1-4.84,0c-.19.92-.36,1.81-.5,2.66-.47,2.66-.78,4.92-1,6.61H59.06c.24-1.72.61-4.06,1.16-6.83.18-.93.39-1.92.62-2.94a24.59,24.59,0,0,1-2.7-1.27A17.51,17.51,0,0,1,54.21,286c.35.86.7,1.7,1,2.49,1.06,2.45,2,4.5,2.81,6H56.56c-.69-1.48-1.53-3.35-2.43-5.55-.36-.88-.73-1.83-1.1-2.8a16.33,16.33,0,0,1-4.83.37,4.9,4.9,0,0,1-3.33-2.3,2.32,2.32,0,0,1,1.05-3.12l.24-.11c1.87-.63,4.72,1.49,5.77,2.91.06.09.63,1.07,1,1.69-.15-.4-.3-.78-.45-1.19-.29-.82-.57-1.64-.87-2.52l-.39-1.31c-.14-.43-.23-.91-.35-1.37-.25-1.06-.46-2.16-.64-3.27A15.35,15.35,0,0,1,45.65,277a4.89,4.89,0,0,1-3.72-1.75,2.34,2.34,0,0,1,.57-3.26l.21-.13c1.76-.9,4.9.77,6.15,2,.08.08.87,1.07,1.3,1.63-.1-.67-.21-1.34-.29-2-.25-2-.43-3.95-.63-5.93l-.18-1.82c-.26.09-3.26,1.21-4.74,1.11a4.91,4.91,0,0,1-3.72-1.74,2.34,2.34,0,0,1,.57-3.26l.21-.13c1.76-.91,4.9.76,6.15,2,.1.09,1.24,1.52,1.51,1.9-.14-1.34-.29-2.66-.49-4a42.07,42.07,0,0,0-1.14-5.21c-.12,0-3.25,1.23-4.76,1.12a4.88,4.88,0,0,1-3.73-1.74,2.34,2.34,0,0,1,.58-3.26l.21-.13c1.75-.91,4.9.76,6.15,2,.08.08,1,1.17,1.36,1.7l.1-.06a31.09,31.09,0,0,0-2.09-4.81c-.45-.88-.93-1.69-1.41-2.47a15.32,15.32,0,0,1-4.51,1.58A4.86,4.86,0,0,1,35.42,249a2.33,2.33,0,0,1,.2-3.29l.2-.16c1.65-1.1,5,.22,6.34,1.32.07.06.77.75,1.27,1.26-.23-.35-.45-.72-.67-1-.83-1.24-1.66-2.33-2.41-3.29-.43-.54-.82-1-1.2-1.46a15.39,15.39,0,0,1-4.71-.68,4.85,4.85,0,0,1-2.84-3,2.34,2.34,0,0,1,1.71-2.83l.24,0c2-.21,4.3,2.48,5,4.09.07.14.79,2.43.75,2.43h0c.37.42.76.88,1.18,1.38.77,1,1.63,2,2.49,3.25A43.92,43.92,0,0,1,45.48,251a30.84,30.84,0,0,1,2.2,5v-2.26c.22-1.74,1.69-5,3.63-5.35a2.36,2.36,0,0,1,2.68,2,2,2,0,0,1,0,.23,4.9,4.9,0,0,1-1.88,3.66,16.38,16.38,0,0,1-4.43,2,41.43,41.43,0,0,1,1.3,5.36c.19,1.06.35,2.13.49,3.2v-1c.22-1.75,1.69-5,3.63-5.35a2.36,2.36,0,0,1,2.68,2,2,2,0,0,1,0,.23,4.88,4.88,0,0,1-1.88,3.65,15.54,15.54,0,0,1-4.29,2l.15,1.24c.24,2,.47,4,.75,5.89.1.69.22,1.35.34,2v-.87c.22-1.75,1.69-5,3.63-5.36a2.36,2.36,0,0,1,2.68,2,2,2,0,0,1,0,.23A4.9,4.9,0,0,1,55.34,275a15,15,0,0,1-4.17,1.94c.14.68.29,1.36.46,2,.12.45.21.88.37,1.32l.42,1.3c.29.81.59,1.66.9,2.44.21.55.42,1.07.64,1.6-.11-.68-.29-2-.29-2.12a9,9,0,0,1,1.21-4.41,4.51,4.51,0,0,1,0-.52,2.33,2.33,0,0,1,2.6-2l.26,0c1.91.5,3.12,3.85,3.21,5.61,0,.11-.06,1.24-.12,2,.1-.42.19-.82.29-1.25.2-.84.42-1.68.66-2.58.13-.43.27-.87.4-1.31s.31-.88.46-1.33c.38-1,.81-2.06,1.27-3.08a15.5,15.5,0,0,1-4.4-1.65,4.88,4.88,0,0,1-2.15-3.51,2.34,2.34,0,0,1,2.28-2.39h.25c2,.21,3.66,3.34,4,5.07,0,.1.14,1.37.19,2.07.28-.62.56-1.23.86-1.84.88-1.77,1.82-3.53,2.75-5.29.29-.54.57-1.08.85-1.62A16.17,16.17,0,0,1,64,263.76a4.87,4.87,0,0,1-2.15-3.5,2.33,2.33,0,0,1,2.27-2.4h.26c2,.22,3.66,3.34,4,5.07,0,.13.19,1.95.21,2.42.62-1.19,1.22-2.38,1.77-3.58a40.33,40.33,0,0,0,1.93-5,16.35,16.35,0,0,1-4.59-1.69,4.84,4.84,0,0,1-2.14-3.51,2.34,2.34,0,0,1,2.28-2.39,1.92,1.92,0,0,1,.24,0c2,.21,3.67,3.34,4,5.07,0,.11.15,1.5.2,2.16h.11a29.46,29.46,0,0,0,1-5.28c.11-1,.16-1.92.19-2.84a15.83,15.83,0,0,1-4.63-1.16,4.87,4.87,0,0,1-2.52-3.26,2.33,2.33,0,0,1,2-2.63l.26,0c2,0,4,2.92,4.55,4.59,0,.1.23,1.06.36,1.76v-1.24c0-1.5-.09-2.86-.19-4.07-.06-.69-.12-1.31-.19-1.89a15.53,15.53,0,0,1-3.56-3.16,4.89,4.89,0,0,1-.73-4,2.31,2.31,0,0,1,3-1.42l.25.1c1.76.9,2.22,4.43,1.93,6.17C74.26,238.18,73.6,240.52,73.57,240.5Z" transform="translate(7.12)"/><path class="cls-2" d="M30.94,243.76s.63-2.3.65-2.45c.24-1.75-.32-5.26-2.09-6.12a2.33,2.33,0,0,0-3.08,1.16,2.6,2.6,0,0,0-.1.25,4.88,4.88,0,0,0,.84,4C28,241.92,30.93,243.76,30.94,243.76Z" transform="translate(7.12)"/><path class="cls-2" d="M-4.12,243c1.42.62,4.89.54,4.89.54S0,241.27,0,241.14c-.76-1.59-3.17-4.22-5.12-4a2.36,2.36,0,0,0-1.93,2.71,1.74,1.74,0,0,0,0,.22A4.87,4.87,0,0,0-4.12,243Z" transform="translate(7.12)"/><path class="cls-2" d="M1.26,236h0c-.07.56-.15,1.16-.22,1.81C.92,239,.8,240.36.76,241.86a39.07,39.07,0,0,0,.12,4.84A31.17,31.17,0,0,0,1.77,252v.06c-.31-.48-1.22-1.82-1.3-1.91-1.16-1.34-4.17-3.24-6-2.46a2.34,2.34,0,0,0-1.12,3.1l.12.22a4.88,4.88,0,0,0,3.58,2,16.38,16.38,0,0,0,4.81-.75,43.38,43.38,0,0,0,1.87,5.19c.43,1,.89,2,1.36,2.94-.28-.42-.54-.79-.58-.83-1.15-1.34-4.16-3.23-6-2.46a2.35,2.35,0,0,0-1.11,3.12c0,.07.07.14.11.2a4.87,4.87,0,0,0,3.59,2,15.74,15.74,0,0,0,4.67-.71c.18.37.36.74.55,1.11.9,1.79,1.8,3.56,2.63,5.33.29.62.56,1.25.83,1.87l-.51-.72c-1.15-1.33-4.16-3.23-6-2.45A2.33,2.33,0,0,0,2.16,270a1.39,1.39,0,0,0,.11.21,4.87,4.87,0,0,0,3.59,2,14.87,14.87,0,0,0,4.54-.68c.26.64.52,1.29.73,1.93.14.44.31.85.42,1.3s.25.88.37,1.32c.2.84.42,1.71.59,2.54.13.57.24,1.12.35,1.68-.28-.63-.86-1.84-.92-1.93-.94-1.49-3.63-3.83-5.55-3.34a2.33,2.33,0,0,0-1.63,2.86,1.32,1.32,0,0,0,.1.3,4.88,4.88,0,0,0,3.23,2.54,15.71,15.71,0,0,0,4.84,0c.19.92.36,1.82.5,2.66.47,2.66.78,4.93,1,6.61h1.33c-.24-1.71-.61-4.06-1.16-6.82-.18-.94-.39-1.93-.62-2.94.92-.38,1.82-.8,2.7-1.27a17.13,17.13,0,0,0,3.93,2.53c-.35.87-.7,1.71-1,2.5-1.06,2.45-2,4.49-2.81,6h1.46c.69-1.47,1.53-3.35,2.43-5.55.36-.88.73-1.82,1.1-2.8a16,16,0,0,0,4.83.38A4.85,4.85,0,0,0,30,279.73a2.33,2.33,0,0,0-1-3.12l-.25-.11c-1.87-.63-4.72,1.5-5.77,2.92-.06.08-.63,1.06-1,1.69l.45-1.2c.3-.81.57-1.63.87-2.52l.39-1.3c.14-.44.23-.91.35-1.37.25-1.07.46-2.16.64-3.27a15.34,15.34,0,0,0,4.58,1A4.88,4.88,0,0,0,33,270.71a2.35,2.35,0,0,0-.6-3.27l-.19-.12c-1.75-.9-4.9.76-6.15,2-.08.08-.87,1.07-1.3,1.62.1-.66.21-1.33.3-2,.24-2,.42-3.94.62-5.93.06-.61.12-1.21.19-1.82a15.76,15.76,0,0,0,4.73,1.11,4.85,4.85,0,0,0,3.72-1.74,2.33,2.33,0,0,0-.61-3.25l-.21-.13c-1.76-.9-4.9.77-6.15,2-.1.1-1.24,1.53-1.51,1.9.14-1.33.29-2.66.49-4a41.81,41.81,0,0,1,1.17-5.16c.12,0,3.25,1.22,4.76,1.12A4.93,4.93,0,0,0,36,251.29a2.33,2.33,0,0,0-.57-3.24,1.64,1.64,0,0,0-.22-.14c-1.75-.91-4.9.76-6.15,2-.08.08-1,1.17-1.36,1.7l-.1-.05a32,32,0,0,1,2.07-4.95c.45-.88.93-1.69,1.42-2.48a15.74,15.74,0,0,0,4.51,1.59,4.89,4.89,0,0,0,3.89-1.32,2.34,2.34,0,0,0-.23-3.31l-.18-.15c-1.65-1.09-5,.22-6.34,1.32-.07.06-.77.75-1.26,1.26.22-.35.44-.71.66-1,.83-1.25,1.66-2.33,2.41-3.29.43-.54.82-1,1.2-1.47a15.64,15.64,0,0,0,4.71-.67,4.9,4.9,0,0,0,2.84-3,2.33,2.33,0,0,0-1.71-2.82l-.29-.05c-2-.21-4.3,2.48-5,4.09-.07.14-.78,2.42-.75,2.42h0c-.37.42-.76.88-1.18,1.39-.77.94-1.63,2-2.48,3.25a41.49,41.49,0,0,0-2.58,4.1,30.48,30.48,0,0,0-2.2,5v-2.26c-.22-1.75-1.69-5-3.63-5.35a2.33,2.33,0,0,0-2.67,1.95,1,1,0,0,0,0,.24,4.9,4.9,0,0,0,1.88,3.66,16.08,16.08,0,0,0,4.43,2,41.57,41.57,0,0,0-1.3,5.37c-.19,1.05-.35,2.12-.49,3.2v-1c-.22-1.75-1.69-5-3.63-5.35A2.33,2.33,0,0,0,19,255.88a1,1,0,0,0,0,.24,4.9,4.9,0,0,0,1.88,3.66,15.54,15.54,0,0,0,4.29,2L25,263c-.24,2-.47,4-.75,5.89-.1.68-.22,1.35-.34,2V270c-.22-1.75-1.69-5-3.63-5.35a2.33,2.33,0,0,0-2.66,1.94,1.15,1.15,0,0,0,0,.26,4.84,4.84,0,0,0,1.87,3.65,14.59,14.59,0,0,0,4.06,1.89c-.14.68-.29,1.37-.46,2-.12.44-.21.88-.37,1.32s-.28.87-.41,1.29c-.3.82-.6,1.66-.91,2.45-.21.55-.42,1.07-.63,1.59.1-.67.28-2,.29-2.12a9.11,9.11,0,0,0-1.22-4.41,4.51,4.51,0,0,0,0-.52,2.34,2.34,0,0,0-2.62-2l-.24,0c-1.91.51-3.12,3.86-3.21,5.62,0,.1.06,1.24.12,1.95-.1-.41-.19-.82-.29-1.24-.2-.85-.42-1.68-.66-2.58-.13-.44-.26-.87-.4-1.31s-.31-.89-.46-1.33c-.38-1-.81-2.06-1.27-3.09a15.1,15.1,0,0,0,4.4-1.65,4.83,4.83,0,0,0,2.15-3.5,2.33,2.33,0,0,0-2.27-2.4h-.26c-2,.22-3.66,3.34-4,5.07,0,.11-.14,1.38-.19,2.07-.28-.61-.56-1.22-.86-1.84C8.83,266,7.89,264.27,7,262.51c-.29-.54-.57-1.08-.85-1.63a15.84,15.84,0,0,0,4.56-1.68,4.85,4.85,0,0,0,2.15-3.51,2.34,2.34,0,0,0-2.28-2.39,2.09,2.09,0,0,0-.25,0c-2,.21-3.66,3.34-4,5.07,0,.13-.19,1.95-.21,2.42-.62-1.19-1.22-2.39-1.77-3.58a42,42,0,0,1-1.93-5A15.69,15.69,0,0,0,7,250.52,4.89,4.89,0,0,0,9.11,247a2.32,2.32,0,0,0-2.26-2.39H6.59c-2,.21-3.67,3.34-4,5.06,0,.12-.15,1.51-.2,2.17H2.28a29.35,29.35,0,0,1-1-5.27c-.11-1-.16-1.92-.19-2.84a15.76,15.76,0,0,0,4.63-1.17,4.83,4.83,0,0,0,2.52-3.25,2.33,2.33,0,0,0-2-2.63l-.26,0c-2,0-4,2.91-4.55,4.59,0,.09-.23,1.05-.36,1.75v-1.24c0-1.49.1-2.86.19-4.07.06-.68.12-1.31.19-1.89A15.49,15.49,0,0,0,5,232.66a4.86,4.86,0,0,0,.73-4,2.33,2.33,0,0,0-3-1.36l-.26.11c-1.76.91-2.22,4.44-1.93,6.18C.57,233.69,1.23,236,1.26,236Z" transform="translate(7.12)"/><path class="cls-2" d="M53.71,263s.63-2.3.65-2.45c.25-1.75-.31-5.26-2.09-6.12a2.33,2.33,0,0,0-3.08,1.16,2.6,2.6,0,0,0-.1.25,4.91,4.91,0,0,0,.85,4C50.78,261.18,53.71,263,53.71,263Z" transform="translate(7.12)"/><path class="cls-2" d="M18.66,262.18c1.42.62,4.88.54,4.88.54s-.74-2.27-.81-2.4c-.76-1.59-3.16-4.22-5.12-4a2.35,2.35,0,0,0-1.92,2.7,1.89,1.89,0,0,0,.05.23A4.84,4.84,0,0,0,18.66,262.18Z" transform="translate(7.12)"/><path class="cls-2" d="M24,255.18h0c-.08.56-.15,1.15-.22,1.81-.12,1.21-.25,2.58-.28,4.08a41.12,41.12,0,0,0,.11,4.84,30.09,30.09,0,0,0,.9,5.34v.06c-.31-.49-1.22-1.82-1.31-1.92-1.15-1.33-4.16-3.23-6-2.46a2.36,2.36,0,0,0-1.1,3.14l.1.18a4.87,4.87,0,0,0,3.59,2,16,16,0,0,0,4.8-.76,41.18,41.18,0,0,0,1.88,5.19c.43,1,.88,2,1.36,2.94-.28-.41-.54-.78-.58-.82-1.15-1.34-4.17-3.24-6-2.46a2.34,2.34,0,0,0-1.12,3.1l.12.22a4.88,4.88,0,0,0,3.58,2,15.45,15.45,0,0,0,4.68-.72c.18.38.36.75.55,1.12.89,1.78,1.8,3.56,2.63,5.33.29.62.55,1.25.82,1.87l-.5-.72c-1.15-1.33-4.17-3.23-6-2.46a2.35,2.35,0,0,0-1.11,3.12c0,.07.07.14.11.2a4.88,4.88,0,0,0,3.58,2,14.94,14.94,0,0,0,4.55-.68c.26.64.51,1.29.73,1.93.14.44.3.85.42,1.3s.25.88.37,1.32c.2.84.41,1.71.59,2.54.13.57.24,1.12.35,1.68-.28-.63-.87-1.84-.93-1.93-.94-1.5-3.63-3.83-5.54-3.34a2.33,2.33,0,0,0-1.6,2.88,2.25,2.25,0,0,0,.08.24,4.88,4.88,0,0,0,3.23,2.54,15.71,15.71,0,0,0,4.84,0c.18.92.35,1.81.5,2.66.47,2.66.77,4.93,1,6.61h1.26c-.24-1.71-.6-4.06-1.15-6.82-.18-.94-.4-1.93-.63-2.95a23.53,23.53,0,0,0,2.78-1.2,16.69,16.69,0,0,0,3.94,2.54c-.35.87-.7,1.71-1,2.5-1.06,2.45-2,4.49-2.81,6h1.45c.69-1.47,1.54-3.35,2.44-5.55.36-.88.73-1.82,1.1-2.8a16,16,0,0,0,4.83.38A4.87,4.87,0,0,0,52.84,299a2.36,2.36,0,0,0-1.36-3.28c-1.87-.63-4.73,1.5-5.77,2.92-.07.08-.63,1.06-1,1.69l.44-1.2c.3-.81.58-1.63.87-2.52l.39-1.3c.14-.44.24-.91.36-1.37.25-1.07.46-2.17.64-3.27A15.34,15.34,0,0,0,52,291.68a4.85,4.85,0,0,0,3.72-1.74,2.34,2.34,0,0,0-.57-3.26l-.21-.13c-1.76-.9-4.9.76-6.15,2-.08.07-.88,1.07-1.3,1.62.1-.67.21-1.33.29-2,.24-2,.43-3.95.62-5.93.06-.61.13-1.21.19-1.82a15.75,15.75,0,0,0,4.74,1.11A4.85,4.85,0,0,0,57,279.79a2.34,2.34,0,0,0-.58-3.26l-.21-.13c-1.75-.9-4.9.77-6.15,2-.09.09-1.23,1.52-1.51,1.9.14-1.33.3-2.66.5-4a42.63,42.63,0,0,1,1.14-5.22c.12.05,3.25,1.23,4.76,1.12a4.85,4.85,0,0,0,3.72-1.74,2.34,2.34,0,0,0-.57-3.26l-.21-.13c-1.76-.9-4.9.77-6.15,2-.08.08-1,1.17-1.36,1.7h-.1a30.27,30.27,0,0,1,2.07-5c.45-.88.93-1.7,1.41-2.48a15.85,15.85,0,0,0,4.51,1.59,4.87,4.87,0,0,0,3.89-1.33,2.34,2.34,0,0,0-.2-3.29l-.21-.16c-1.64-1.09-5,.22-6.33,1.32-.07.06-.77.75-1.27,1.26.23-.35.45-.71.67-1,.83-1.25,1.66-2.33,2.4-3.29.43-.54.83-1,1.21-1.47a15.64,15.64,0,0,0,4.71-.67,4.9,4.9,0,0,0,2.84-3,2.33,2.33,0,0,0-1.71-2.82l-.29-.05c-2-.22-4.3,2.47-5,4.08-.06.14-.78,2.43-.74,2.43h0c-.37.42-.77.88-1.18,1.39-.77.94-1.63,2-2.49,3.24A39.76,39.76,0,0,0,52,265.63a30,30,0,0,0-2.2,4.95v-2.26c-.23-1.75-1.69-5-3.63-5.35a2.34,2.34,0,0,0-2.7,1.9c0,.1,0,.21,0,.31a4.9,4.9,0,0,0,1.88,3.66,15.89,15.89,0,0,0,4.42,2,43.29,43.29,0,0,0-1.3,5.37c-.18,1.05-.34,2.12-.48,3.2v-1c-.23-1.75-1.69-5-3.63-5.36a2.36,2.36,0,0,0-2.68,2,2,2,0,0,0,0,.23,4.9,4.9,0,0,0,1.88,3.66,15.26,15.26,0,0,0,4.29,2c-.05.41-.11.82-.16,1.24-.23,2-.46,4-.74,5.89-.1.68-.23,1.35-.35,2v-.88c-.23-1.75-1.69-5-3.63-5.35a2.33,2.33,0,0,0-2.67,1.95,1.07,1.07,0,0,0,0,.25,4.88,4.88,0,0,0,1.88,3.65,14.68,14.68,0,0,0,4.17,1.94c-.15.68-.29,1.37-.46,2-.13.44-.22.88-.37,1.32s-.28.87-.42,1.29c-.29.82-.6,1.66-.91,2.45-.21.55-.42,1.07-.63,1.59.11-.67.29-2,.29-2.12a9.13,9.13,0,0,0-1.21-4.41,2.26,2.26,0,0,0,0-.52,2.33,2.33,0,0,0-2.6-2l-.25,0c-1.91.51-3.12,3.86-3.21,5.62,0,.1.06,1.24.12,1.95-.1-.41-.19-.82-.29-1.24-.2-.85-.43-1.68-.67-2.59l-.39-1.3c-.12-.44-.31-.89-.46-1.34-.38-1-.81-2.05-1.27-3.08a15.1,15.1,0,0,0,4.4-1.65,4.82,4.82,0,0,0,2.14-3.5,2.33,2.33,0,0,0-2.27-2.4H37.6c-2,.22-3.67,3.34-4,5.07,0,.11-.14,1.38-.19,2.07-.28-.61-.56-1.23-.86-1.84-.88-1.76-1.82-3.53-2.76-5.29l-.91-1.5c.26-.06,3.39-.78,4.56-1.68A4.84,4.84,0,0,0,35.58,275a2.32,2.32,0,0,0-2.26-2.39,1.13,1.13,0,0,0-.26,0c-2,.21-3.67,3.34-4,5.06,0,.14-.19,2-.21,2.43-.62-1.19-1.23-2.39-1.77-3.59a40.33,40.33,0,0,1-1.93-5,15.59,15.59,0,0,0,4.59-1.7,4.88,4.88,0,0,0,2.14-3.5,2.32,2.32,0,0,0-2.26-2.39,1.13,1.13,0,0,0-.26,0c-2,.21-3.67,3.34-4,5.06,0,.12-.16,1.51-.2,2.17h-.11a30.43,30.43,0,0,1-1-5.27c-.11-1-.16-1.93-.19-2.84a15.7,15.7,0,0,0,4.62-1.17A4.88,4.88,0,0,0,31,258.61,2.35,2.35,0,0,0,29,256l-.23,0c-2,0-4,2.92-4.55,4.6,0,.09-.23,1.05-.37,1.75v-1.24c0-1.49.1-2.86.2-4.07a14.9,14.9,0,0,1,.19-1.89A15.49,15.49,0,0,0,27.78,252a4.89,4.89,0,0,0,.73-4,2.33,2.33,0,0,0-3-1.41,2.18,2.18,0,0,0-.23.09c-1.75.91-2.21,4.44-1.92,6.18A23.81,23.81,0,0,0,24,255.18Z" transform="translate(7.12)"/><path class="cls-2" d="M214.48,254.93s.83-3,.86-3.22c.31-2.29-.41-6.9-2.75-8a3.05,3.05,0,0,0-4,1.55,1.88,1.88,0,0,0-.12.3c-.63,1.72.16,3.83,1.1,5.27C210.63,252.51,214.48,254.93,214.48,254.93Z" transform="translate(7.12)"/><path class="cls-2" d="M168.48,253.93c1.86.81,6.4.71,6.4.71s-1-3-1.06-3.16c-1-2.08-4.15-5.53-6.71-5.18a3.06,3.06,0,0,0-2.53,3.51c0,.11,0,.22.07.33C165.11,251.92,166.94,253.24,168.48,253.93Z" transform="translate(7.12)"/><path class="cls-2" d="M175.57,244.71h0c-.1.73-.2,1.52-.29,2.38-.16,1.58-.32,3.38-.37,5.34a53.81,53.81,0,0,0,.16,6.35,39.36,39.36,0,0,0,1.17,7v.08c-.41-.64-1.61-2.39-1.72-2.52-1.51-1.74-5.46-4.23-7.84-3.22a3.05,3.05,0,0,0-1.51,4.06,1.59,1.59,0,0,0,.15.29c.88,1.6,3,2.39,4.7,2.64,1.92.28,6-.89,6.3-1a54.75,54.75,0,0,0,2.46,6.81c.56,1.29,1.16,2.57,1.78,3.85-.37-.54-.7-1-.76-1.08-1.51-1.75-5.46-4.24-7.84-3.23a3.05,3.05,0,0,0-1.51,4.06,1.59,1.59,0,0,0,.15.29c.88,1.61,3,2.4,4.7,2.65s5.21-.68,6.12-.94c.25.49.48,1,.73,1.46,1.17,2.34,2.36,4.67,3.44,7,.39.82.74,1.64,1.09,2.45-.33-.48-.61-.88-.66-.94-1.51-1.75-5.46-4.23-7.85-3.22a3.05,3.05,0,0,0-1.5,4.06,1.59,1.59,0,0,0,.15.29c.88,1.6,3,2.39,4.69,2.64s4.87-.59,6-.89c.33.85.67,1.7,1,2.53.19.58.4,1.12.55,1.71l.48,1.72c.27,1.11.55,2.25.78,3.34.17.75.31,1.47.46,2.2-.37-.82-1.14-2.41-1.21-2.53-1.23-2-4.76-5-7.27-4.38a3.06,3.06,0,0,0-2.11,3.78,3,3,0,0,0,.11.32c.63,1.71,2.59,2.82,4.24,3.32,1.82.56,5.84.05,6.35,0,.24,1.21.46,2.38.65,3.49.62,3.49,1,6.46,1.28,8.67h1.74c-.31-2.25-.79-5.33-1.51-9-.24-1.22-.52-2.52-.82-3.85a33.58,33.58,0,0,0,3.54-1.67c1.32,1.44,4.72,3.12,5.16,3.33-.46,1.14-.92,2.24-1.37,3.27-1.4,3.22-2.7,5.89-3.69,7.88h1.9c.91-1.94,2-4.4,3.2-7.28.47-1.16,1-2.4,1.44-3.67.49.1,4.47.91,6.33.49,1.68-.38,3.72-1.34,4.48-3a3.06,3.06,0,0,0-1.39-4.1,2.71,2.71,0,0,0-.3-.13c-2.46-.83-6.2,2-7.58,3.82-.08.11-.82,1.4-1.28,2.22l.59-1.57c.39-1.07.75-2.15,1.14-3.3l.51-1.72c.18-.57.3-1.19.46-1.79.33-1.4.6-2.84.84-4.29.94.34,4.28,1.5,6,1.38s3.88-.75,4.88-2.29a3.06,3.06,0,0,0-.72-4.26,2.68,2.68,0,0,0-.28-.18c-2.3-1.18-6.42,1-8.06,2.63-.11.11-1.15,1.41-1.71,2.13.14-.87.28-1.74.39-2.63.32-2.57.56-5.18.81-7.78.08-.79.17-1.59.25-2.38.33.12,4.27,1.59,6.21,1.45,1.72-.12,3.88-.75,4.88-2.28a3.06,3.06,0,0,0-.72-4.26,2.68,2.68,0,0,0-.28-.18c-2.3-1.19-6.42,1-8.06,2.63-.13.12-1.62,2-2,2.49.18-1.75.38-3.49.65-5.19a51.81,51.81,0,0,1,1.49-6.84c.16.06,4.26,1.61,6.25,1.47,1.72-.12,3.88-.76,4.88-2.29a3.06,3.06,0,0,0-.72-4.26,2.68,2.68,0,0,0-.28-.18c-2.3-1.19-6.43,1-8.07,2.63-.1.11-1.25,1.54-1.78,2.23l-.13-.07a39.24,39.24,0,0,1,2.72-6.49c.59-1.15,1.21-2.22,1.85-3.25.73.37,4.11,2,5.91,2.08s3.94-.32,5.1-1.73a3.07,3.07,0,0,0-.26-4.32l-.27-.21c-2.16-1.43-6.5.29-8.31,1.73-.1.08-1,1-1.66,1.65.29-.45.58-.93.87-1.37,1.09-1.63,2.18-3.05,3.16-4.31.56-.71,1.08-1.34,1.58-1.93.9,0,4.57-.12,6.17-.87s3.35-2.11,3.73-3.9a3.06,3.06,0,0,0-2.23-3.71l-.33-.06c-2.58-.27-5.64,3.25-6.58,5.36-.08.19-1,3.19-1,3.19h.05c-.49.55-1,1.15-1.55,1.81-1,1.24-2.14,2.65-3.26,4.26a54.44,54.44,0,0,0-3.37,5.38,40.89,40.89,0,0,0-2.89,6.49V262c-.3-2.29-2.22-6.55-4.77-7a3.07,3.07,0,0,0-3.5,2.55l0,.33c-.15,1.83,1.17,3.65,2.46,4.8,1.45,1.3,5.48,2.55,5.8,2.65a54.49,54.49,0,0,0-1.7,7c-.25,1.39-.45,2.79-.64,4.2v-1.32c-.29-2.3-2.22-6.55-4.76-7a3.07,3.07,0,0,0-3.5,2.55l0,.33c-.15,1.82,1.17,3.64,2.45,4.79s4.73,2.31,5.63,2.6c-.06.54-.13,1.08-.2,1.62-.31,2.6-.61,5.2-1,7.73-.13.9-.29,1.77-.45,2.65v-1.15c-.3-2.29-2.22-6.55-4.76-7a3.09,3.09,0,0,0-3.51,2.56l0,.32c-.15,1.82,1.17,3.65,2.46,4.8s4.39,2.19,5.47,2.54c-.19.89-.38,1.79-.6,2.64-.17.58-.29,1.16-.48,1.73s-.37,1.14-.55,1.7c-.39,1.07-.79,2.18-1.19,3.21-.28.72-.56,1.4-.83,2.09.14-.89.37-2.63.38-2.78a11.91,11.91,0,0,0-1.6-5.79,2.51,2.51,0,0,0,0-.67,3.05,3.05,0,0,0-3.41-2.66,3.43,3.43,0,0,0-.34.06c-2.5.66-4.09,5.05-4.2,7.36,0,.14.08,1.63.15,2.56-.13-.54-.24-1.07-.38-1.63-.26-1.11-.56-2.2-.87-3.38-.17-.57-.34-1.14-.52-1.72s-.4-1.16-.6-1.75c-.49-1.35-1.06-2.7-1.66-4,1-.23,4.39-1.11,5.77-2.16s2.82-2.77,2.81-4.6a3.08,3.08,0,0,0-3-3.15h-.32c-2.58.28-4.81,4.38-5.28,6.65,0,.14-.18,1.8-.24,2.72-.37-.81-.73-1.62-1.13-2.42-1.15-2.32-2.39-4.62-3.61-6.93-.38-.71-.74-1.42-1.11-2.13.34-.08,4.44-1,6-2.21,1.37-1.05,2.82-2.77,2.81-4.6a3.06,3.06,0,0,0-3-3.15h-.34c-2.57.28-4.81,4.38-5.27,6.65,0,.17-.25,2.56-.28,3.17-.81-1.56-1.6-3.12-2.32-4.69a52.77,52.77,0,0,1-2.53-6.53c.16,0,4.44-1,6-2.22,1.37-1.05,2.82-2.77,2.81-4.6a3.06,3.06,0,0,0-2.89-3.22,3.58,3.58,0,0,0-.65,0c-2.57.28-4.81,4.38-5.27,6.64,0,.15-.2,2-.26,2.84h-.15a39.66,39.66,0,0,1-1.31-6.92c-.15-1.28-.22-2.52-.25-3.73.81-.1,4.54-.59,6.08-1.52s3.11-2.45,3.29-4.27a3.06,3.06,0,0,0-2.61-3.45c-.11,0-.22,0-.33,0-2.59,0-5.26,3.83-6,6,0,.12-.3,1.38-.48,2.3v-1.63c0-2,.13-3.75.25-5.34.08-.9.16-1.71.25-2.47.75-.52,3.75-2.63,4.67-4.14s1.63-3.61,1-5.31a3.08,3.08,0,0,0-3.93-1.85l-.29.12c-2.3,1.19-2.9,5.82-2.52,8.1C174.66,241.72,175.53,244.74,175.57,244.71Z" transform="translate(7.12)"/><path class="cls-2" d="M263.77,268.51s.63-2.31.65-2.46c.25-1.74-.31-5.26-2.09-6.12a2.34,2.34,0,0,0-3.09,1.18l-.09.23a4.91,4.91,0,0,0,.85,4C260.84,266.66,263.77,268.51,263.77,268.51Z" transform="translate(7.12)"/><path class="cls-2" d="M228.72,267.75c1.42.61,4.88.54,4.89.54s-.75-2.27-.82-2.41c-.76-1.59-3.16-4.22-5.12-3.95a2.34,2.34,0,0,0-1.93,2.68l.06.25A4.85,4.85,0,0,0,228.72,267.75Z" transform="translate(7.12)"/><path class="cls-2" d="M234.1,260.72h0c-.08.56-.15,1.16-.22,1.81-.12,1.21-.25,2.58-.28,4.08a41.12,41.12,0,0,0,.11,4.84,30.09,30.09,0,0,0,.9,5.34v.07c-.31-.49-1.22-1.83-1.31-1.92-1.15-1.33-4.16-3.23-6-2.46a2.35,2.35,0,0,0-1.11,3.12c0,.07.07.14.11.2a4.92,4.92,0,0,0,3.59,2c1.47.22,4.56-.68,4.8-.75a41.18,41.18,0,0,0,1.88,5.19c.43,1,.88,2,1.36,2.94-.28-.42-.54-.78-.58-.83-1.15-1.33-4.17-3.23-6-2.46a2.35,2.35,0,0,0-1.11,3.12c0,.07.07.14.11.2a4.88,4.88,0,0,0,3.58,2,15.14,15.14,0,0,0,4.68-.71l.55,1.12c.89,1.78,1.8,3.55,2.63,5.32.29.63.55,1.25.82,1.88-.25-.37-.46-.68-.5-.72-1.15-1.34-4.17-3.23-6-2.46a2.34,2.34,0,0,0-1.12,3.1l.12.22a4.88,4.88,0,0,0,3.58,2,14.64,14.64,0,0,0,4.55-.68c.26.65.51,1.3.73,1.93.14.44.3.86.42,1.31s.25.88.37,1.31c.2.84.41,1.71.59,2.54.13.58.24,1.13.35,1.68-.28-.62-.87-1.83-.93-1.93-.93-1.49-3.62-3.82-5.54-3.34a2.34,2.34,0,0,0-1.6,2.9,1.55,1.55,0,0,0,.08.23,4.83,4.83,0,0,0,3.23,2.53,15.71,15.71,0,0,0,4.84,0c.18.91.35,1.81.5,2.65.47,2.67.78,4.93,1,6.62h1.33c-.25-1.72-.61-4.06-1.16-6.83-.18-.93-.4-1.92-.63-2.94a23.75,23.75,0,0,0,2.7-1.27,17.23,17.23,0,0,0,4,2.51c-.35.86-.7,1.7-1,2.49-1.06,2.45-2,4.5-2.81,6h1.45c.69-1.48,1.54-3.35,2.44-5.56.36-.87.73-1.82,1.1-2.79a16.33,16.33,0,0,0,4.83.37,4.85,4.85,0,0,0,3.41-2.29,2.33,2.33,0,0,0-1.11-3.11l-.26-.11c-1.87-.62-4.73,1.5-5.77,2.92-.07.08-.63,1.07-1,1.69.15-.4.3-.78.44-1.19.3-.82.58-1.64.87-2.52l.39-1.31c.14-.43.24-.91.36-1.37.25-1.07.46-2.16.64-3.27a15,15,0,0,0,4.58,1,4.85,4.85,0,0,0,3.72-1.74,2.34,2.34,0,0,0-.57-3.26l-.21-.13c-1.76-.9-4.9.77-6.15,2-.08.08-.88,1.07-1.3,1.63.1-.67.21-1.34.29-2,.25-2,.43-3.95.62-5.93.06-.61.13-1.22.19-1.82.26.09,3.26,1.21,4.74,1.11a4.89,4.89,0,0,0,3.72-1.75,2.33,2.33,0,0,0-.57-3.24,1.64,1.64,0,0,0-.22-.14c-1.75-.91-4.9.76-6.15,2-.09.1-1.23,1.53-1.51,1.91.14-1.34.3-2.66.5-4a42.07,42.07,0,0,1,1.14-5.21c.12,0,3.25,1.23,4.76,1.12a4.85,4.85,0,0,0,3.72-1.74,2.34,2.34,0,0,0-.57-3.26l-.21-.13c-1.76-.91-4.9.76-6.15,2-.08.08-1,1.17-1.36,1.69l-.1-.05a29.76,29.76,0,0,1,2.07-4.95c.45-.88.93-1.69,1.41-2.47a15.43,15.43,0,0,0,4.51,1.58A4.86,4.86,0,0,0,272.2,269a2.34,2.34,0,0,0-.2-3.29l-.21-.16c-1.64-1.1-5,.22-6.33,1.31l-1.27,1.27c.23-.35.45-.72.67-1,.83-1.24,1.66-2.33,2.4-3.29.43-.54.83-1,1.21-1.47a15.33,15.33,0,0,0,4.71-.67,4.9,4.9,0,0,0,2.84-3,2.33,2.33,0,0,0-1.71-2.83l-.24-.05c-2-.21-4.3,2.48-5,4.09-.06.14-.78,2.43-.74,2.43h0c-.37.42-.76.87-1.18,1.38-.77.94-1.63,2-2.49,3.25a44.66,44.66,0,0,0-2.57,4.1,30.48,30.48,0,0,0-2.2,5v-2.26c-.23-1.75-1.69-5-3.63-5.35a2.33,2.33,0,0,0-2.67,1.95,1.07,1.07,0,0,0,0,.25,4.85,4.85,0,0,0,1.88,3.65,13.73,13.73,0,0,0,4.42,2,43.14,43.14,0,0,0-1.3,5.36c-.18,1.06-.34,2.13-.48,3.2v-1c-.23-1.75-1.69-5-3.63-5.35a2.33,2.33,0,0,0-2.67,1.95,1.07,1.07,0,0,0,0,.25,4.85,4.85,0,0,0,1.88,3.65,15.26,15.26,0,0,0,4.29,2c-.05.42-.11.83-.16,1.24-.23,2-.46,4-.74,5.89-.1.69-.22,1.35-.35,2v-.87c-.23-1.75-1.69-5-3.63-5.36a2.33,2.33,0,0,0-2.67,1.95,1.07,1.07,0,0,0,0,.25,4.9,4.9,0,0,0,1.88,3.66,15,15,0,0,0,4.17,1.94c-.15.68-.29,1.36-.46,2-.13.45-.22.88-.37,1.32l-.42,1.3c-.29.81-.6,1.66-.9,2.44l-.64,1.6c.11-.68.29-2,.29-2.12a9.16,9.16,0,0,0-1.21-4.42,2.18,2.18,0,0,0,0-.51,2.32,2.32,0,0,0-2.56-2l-.29,0c-1.91.5-3.12,3.85-3.21,5.61,0,.11.06,1.24.12,1.95-.1-.41-.19-.81-.29-1.24-.2-.84-.43-1.68-.67-2.58l-.39-1.31c-.12-.43-.31-.88-.46-1.33-.38-1-.81-2.06-1.27-3.08a15.39,15.39,0,0,0,4.4-1.65,4.84,4.84,0,0,0,2.14-3.51,2.32,2.32,0,0,0-2.26-2.39h-.26c-2,.21-3.67,3.34-4,5.06,0,.11-.14,1.38-.19,2.08-.28-.62-.56-1.23-.86-1.84-.88-1.77-1.82-3.53-2.76-5.29l-.84-1.62a16.1,16.1,0,0,0,4.45-1.59,4.84,4.84,0,0,0,2.14-3.51,2.34,2.34,0,0,0-2.28-2.39h-.24c-2,.22-3.67,3.34-4,5.07,0,.13-.19,2-.21,2.42-.62-1.19-1.23-2.38-1.77-3.58a40.33,40.33,0,0,1-1.93-5,15.79,15.79,0,0,0,4.59-1.69,4.86,4.86,0,0,0,2.14-3.51,2.34,2.34,0,0,0-2.28-2.39h-.24c-2,.21-3.67,3.34-4,5.07,0,.11-.16,1.5-.2,2.16h-.11a30.43,30.43,0,0,1-1-5.27c-.11-1-.16-1.92-.19-2.84a15.4,15.4,0,0,0,4.58-1.14,4.88,4.88,0,0,0,2.52-3.25,2.34,2.34,0,0,0-2-2.63l-.24,0c-2,0-4,2.92-4.55,4.59,0,.09-.23,1.05-.37,1.76v-1.24c0-1.5.1-2.86.2-4.07.05-.69.12-1.31.19-1.89a15.77,15.77,0,0,0,3.56-3.16,4.89,4.89,0,0,0,.73-4,2.33,2.33,0,0,0-3-1.42l-.25.1c-1.75.9-2.21,4.43-1.92,6.17C233.4,258.43,234.07,260.74,234.1,260.72Z" transform="translate(7.12)"/><path class="cls-2" d="M276.73,273s-.63-2.3-.65-2.45c-.24-1.75.31-5.26,2.09-6.12a2.34,2.34,0,0,1,3.09,1.18,1,1,0,0,1,.09.22,4.89,4.89,0,0,1-.84,4C279.67,271.18,276.73,273,276.73,273Z" transform="translate(7.12)"/><path class="cls-2" d="M311.78,272.27c-1.41.62-4.88.54-4.88.54s.74-2.27.81-2.41c.76-1.59,3.16-4.21,5.12-4a2.34,2.34,0,0,1,1.93,2.69,2,2,0,0,1-.05.24A4.9,4.9,0,0,1,311.78,272.27Z" transform="translate(7.12)"/><path class="cls-2" d="M306.41,265.24h0c.08.55.16,1.15.23,1.81.12,1.21.24,2.58.28,4.08a43.39,43.39,0,0,1-.12,4.84,30.09,30.09,0,0,1-.9,5.34v.06c.31-.49,1.23-1.82,1.31-1.92,1.15-1.33,4.17-3.23,6-2.46a2.35,2.35,0,0,1,1.11,3.12,1.28,1.28,0,0,1-.11.2,4.88,4.88,0,0,1-3.58,2,16.06,16.06,0,0,1-4.81-.76,41.18,41.18,0,0,1-1.88,5.19c-.42,1-.88,2-1.35,2.94.28-.41.53-.78.58-.83,1.15-1.33,4.16-3.23,6-2.46a2.35,2.35,0,0,1,1.11,3.12,1.28,1.28,0,0,1-.11.2,4.82,4.82,0,0,1-3.58,2,15.43,15.43,0,0,1-4.67-.72c-.19.37-.37.75-.55,1.12-.9,1.78-1.8,3.56-2.63,5.33-.3.62-.56,1.25-.83,1.87l.5-.72c1.16-1.33,4.17-3.23,6-2.46a2.35,2.35,0,0,1,1.11,3.12,1.28,1.28,0,0,1-.11.2,4.88,4.88,0,0,1-3.58,2,14.94,14.94,0,0,1-4.55-.68c-.25.64-.51,1.29-.73,1.93-.14.44-.3.85-.42,1.3l-.36,1.31c-.2.85-.42,1.72-.6,2.54-.12.58-.23,1.13-.35,1.68.29-.62.87-1.83.93-1.92.94-1.5,3.63-3.83,5.54-3.34a2.34,2.34,0,0,1,1.62,2.87l-.09.25a4.92,4.92,0,0,1-3.24,2.54,16.36,16.36,0,0,1-4.84,0c-.18.92-.35,1.81-.5,2.66-.47,2.66-.77,4.93-1,6.61h-1.33c.24-1.71.6-4.06,1.15-6.83.19-.93.4-1.92.63-2.94a24.59,24.59,0,0,1-2.7-1.27,16.84,16.84,0,0,1-3.93,2.54c.35.87.7,1.71,1,2.49,1.07,2.46,2.06,4.5,2.81,6h-1.39c-.69-1.47-1.53-3.35-2.43-5.55-.37-.88-.74-1.83-1.1-2.8a16,16,0,0,1-4.83.37,4.87,4.87,0,0,1-3.42-2.28,2.34,2.34,0,0,1,1.07-3.13l.22-.1c1.87-.63,4.73,1.5,5.78,2.91.06.09.63,1.07,1,1.7l-.45-1.2c-.3-.81-.57-1.64-.87-2.52l-.39-1.31c-.14-.43-.23-.9-.35-1.36-.26-1.07-.46-2.17-.65-3.27a15.65,15.65,0,0,1-4.58,1.05,4.91,4.91,0,0,1-3.72-1.74,2.34,2.34,0,0,1,.58-3.26l.21-.13c1.75-.91,4.9.76,6.15,2,.08.07.87,1.07,1.3,1.62-.11-.67-.21-1.33-.3-2-.24-2-.43-4-.62-5.93-.06-.61-.12-1.21-.19-1.82a15.76,15.76,0,0,1-4.73,1.11,4.88,4.88,0,0,1-3.73-1.74,2.35,2.35,0,0,1,.6-3.27l.19-.12c1.75-.9,4.9.77,6.15,2,.09.09,1.24,1.52,1.51,1.9-.14-1.33-.29-2.66-.5-4a42.63,42.63,0,0,0-1.14-5.22,15.89,15.89,0,0,1-4.76,1.12,4.85,4.85,0,0,1-3.72-1.74,2.34,2.34,0,0,1,.58-3.26l.21-.13c1.75-.9,4.9.77,6.15,2,.08.08.95,1.17,1.35,1.7l.1-.05a29.76,29.76,0,0,0-2.07-4.95c-.45-.88-.92-1.7-1.41-2.48a15.64,15.64,0,0,1-4.51,1.59,4.9,4.9,0,0,1-3.89-1.33,2.34,2.34,0,0,1,.22-3.3l.19-.15c1.64-1.09,4.95.22,6.33,1.32.08.06.77.75,1.27,1.26-.22-.35-.45-.71-.67-1-.82-1.25-1.66-2.34-2.4-3.29q-.65-.81-1.2-1.47a15.69,15.69,0,0,1-4.71-.67,4.92,4.92,0,0,1-2.85-3,2.35,2.35,0,0,1,1.74-2.83l.26-.05c2-.21,4.29,2.48,5,4.09.06.14.78,2.43.75,2.43h-.05c.38.42.77.88,1.19,1.39.77.94,1.63,2,2.48,3.24a42.7,42.7,0,0,1,2.58,4.1,32.17,32.17,0,0,1,2.2,4.95v-2.25c.23-1.75,1.7-5,3.64-5.36a2.35,2.35,0,0,1,2.67,2,1.94,1.94,0,0,1,0,.24,4.86,4.86,0,0,1-1.87,3.66,16.08,16.08,0,0,1-4.43,2,41.43,41.43,0,0,1,1.3,5.36c.19,1.06.34,2.13.49,3.21v-1c.23-1.75,1.7-5,3.64-5.36a2.33,2.33,0,0,1,2.66,1.94,1.15,1.15,0,0,1,0,.26,4.86,4.86,0,0,1-1.87,3.66,15.19,15.19,0,0,1-4.3,2c.05.41.11.82.16,1.23.24,2,.46,4,.75,5.9.1.68.22,1.35.34,2v-.88c.23-1.75,1.7-5,3.64-5.35a2.33,2.33,0,0,1,2.66,1.94,1.07,1.07,0,0,1,0,.25,4.86,4.86,0,0,1-1.87,3.66,14.68,14.68,0,0,1-4.17,1.94c.14.68.28,1.36.45,2,.13.44.22.88.37,1.31l.42,1.3c.3.82.6,1.66.91,2.45.21.55.42,1.07.63,1.59-.1-.68-.29-2-.29-2.12a9,9,0,0,1,1.22-4.41,2.26,2.26,0,0,1,0-.52,2.33,2.33,0,0,1,2.58-2.05l.28.05c1.91.51,3.12,3.86,3.21,5.62,0,.1-.07,1.23-.12,2,.09-.42.18-.82.29-1.25.2-.84.42-1.68.66-2.58l.39-1.3c.13-.44.31-.89.47-1.34.37-1,.81-2.06,1.26-3.08a15.39,15.39,0,0,1-4.4-1.65,4.89,4.89,0,0,1-2.14-3.51,2.34,2.34,0,0,1,2.28-2.39,1.92,1.92,0,0,1,.24,0c2,.22,3.67,3.34,4,5.07,0,.11.13,1.37.19,2.07.28-.61.55-1.23.86-1.84.87-1.77,1.82-3.53,2.75-5.29.29-.54.56-1.08.85-1.62a15.91,15.91,0,0,1-4.57-1.68,4.92,4.92,0,0,1-2.14-3.51,2.32,2.32,0,0,1,2.26-2.39h.26c2,.21,3.67,3.34,4,5.06,0,.13.19,2,.21,2.42.61-1.19,1.22-2.38,1.77-3.58a40.33,40.33,0,0,0,1.93-5,15.4,15.4,0,0,1-4.59-1.7,4.87,4.87,0,0,1-2.15-3.5,2.33,2.33,0,0,1,2.27-2.4H301c2,.22,3.66,3.34,4,5.07,0,.11.15,1.5.19,2.17h.3a30.43,30.43,0,0,0,1-5.27c.11-1,.16-1.93.19-2.85a15.5,15.5,0,0,1-4.64-1.16,4.89,4.89,0,0,1-2.51-3.25,2.34,2.34,0,0,1,2-2.64l.24,0c2,0,4,2.92,4.56,4.6,0,.09.23,1,.36,1.75V271c0-1.49-.1-2.86-.19-4.07-.06-.69-.13-1.31-.2-1.89a15.44,15.44,0,0,1-3.55-3.15,4.89,4.89,0,0,1-.74-4.05,2.34,2.34,0,0,1,3-1.41,1.57,1.57,0,0,1,.23.09c1.75.91,2.21,4.44,1.92,6.18A21.48,21.48,0,0,1,306.41,265.24Z" transform="translate(7.12)"/><path class="cls-2" d="M323.48,269.54s-.45-1.64-.47-1.75c-.17-1.24.22-3.75,1.49-4.36a1.67,1.67,0,0,1,2.21.84l.06.16a3.47,3.47,0,0,1-.6,2.86A11.84,11.84,0,0,1,323.48,269.54Z" transform="translate(7.12)"/><path class="cls-2" d="M348.48,269a11.66,11.66,0,0,1-3.48.38s.53-1.61.58-1.71c.54-1.13,2.25-3,3.64-2.82a1.67,1.67,0,0,1,1.38,1.92.85.85,0,0,1,0,.17A3.45,3.45,0,0,1,348.48,269Z" transform="translate(7.12)"/><path class="cls-2" d="M344.61,264h0c.06.39.11.82.16,1.28.09.87.18,1.84.2,2.91a28.39,28.39,0,0,1-.08,3.45,22.29,22.29,0,0,1-.64,3.81h0c.22-.35.87-1.3.93-1.37.82-.95,3-2.3,4.26-1.75a1.67,1.67,0,0,1,.82,2.22,1.09,1.09,0,0,1-.08.15,3.48,3.48,0,0,1-2.55,1.43,11.76,11.76,0,0,1-3.43-.54,28.67,28.67,0,0,1-1.34,3.7c-.3.7-.63,1.4-1,2.1.2-.3.38-.56.41-.59.82-1,3-2.31,4.26-1.76a1.67,1.67,0,0,1,.82,2.22,1.09,1.09,0,0,1-.08.15,3.44,3.44,0,0,1-2.55,1.43,11.07,11.07,0,0,1-3.33-.51l-.4.8c-.63,1.27-1.28,2.53-1.87,3.79-.21.45-.4.89-.59,1.34.18-.26.33-.48.36-.51.82-.95,3-2.3,4.26-1.75a1.66,1.66,0,0,1,.84,2.18,1.62,1.62,0,0,1-.1.18,3.49,3.49,0,0,1-2.55,1.44,10.79,10.79,0,0,1-3.24-.49c-.18.46-.36.92-.52,1.38s-.22.61-.3.92-.17.63-.26.94c-.14.6-.3,1.22-.42,1.81-.09.41-.17.8-.25,1.2.2-.45.62-1.31.66-1.38.67-1.06,2.58-2.72,4-2.37a1.66,1.66,0,0,1,1.15,2,1.34,1.34,0,0,1-.07.18,3.48,3.48,0,0,1-2.3,1.81,11.73,11.73,0,0,1-3.45,0c-.13.65-.25,1.29-.36,1.89-.33,1.9-.55,3.51-.69,4.71h-1c.17-1.22.43-2.89.83-4.86.13-.67.28-1.37.44-2.1a16.78,16.78,0,0,1-1.92-.9,11.69,11.69,0,0,1-2.81,1.8l.75,1.78c.76,1.75,1.46,3.2,2,4.28h-1c-.49-1-1.1-2.39-1.74-3.95-.25-.63-.52-1.3-.78-2a11.08,11.08,0,0,1-3.44.27,3.49,3.49,0,0,1-2.43-1.63,1.65,1.65,0,0,1,.75-2.22l.17-.08c1.33-.45,3.37,1.06,4.11,2.08,0,.06.45.76.7,1.2-.11-.28-.21-.56-.32-.85-.21-.58-.41-1.17-.62-1.8-.09-.3-.18-.61-.28-.93s-.16-.64-.25-1c-.18-.76-.33-1.54-.46-2.33a11,11,0,0,1-3.26.75,3.48,3.48,0,0,1-2.65-1.24,1.66,1.66,0,0,1,.41-2.32l.15-.1c1.25-.64,3.49.55,4.38,1.43l.93,1.16c-.08-.48-.16-.95-.22-1.43-.17-1.4-.3-2.81-.44-4.23,0-.43-.09-.86-.13-1.29a11.56,11.56,0,0,1-3.38.79,3.48,3.48,0,0,1-2.65-1.24,1.66,1.66,0,0,1,.41-2.32l.15-.1c1.25-.64,3.49.55,4.38,1.43.07.07.88,1.09,1.08,1.36-.1-.95-.21-1.9-.36-2.83a26.41,26.41,0,0,0-.81-3.71,12,12,0,0,1-3.39.8,3.48,3.48,0,0,1-2.65-1.24,1.66,1.66,0,0,1,.41-2.32l.15-.1c1.25-.64,3.49.55,4.38,1.43.06.06.68.84,1,1.21H326a21.42,21.42,0,0,0-1.48-3.53c-.32-.63-.66-1.21-1-1.77a11.06,11.06,0,0,1-3.21,1.13,3.44,3.44,0,0,1-2.78-.94,1.65,1.65,0,0,1,.16-2.35l.13-.11c1.18-.78,3.53.16,4.52.94.05,0,.54.54.9.9-.16-.25-.32-.51-.48-.74-.58-.89-1.18-1.67-1.71-2.35a11.81,11.81,0,0,0-.86-1,11.22,11.22,0,0,1-3.35-.48,3.5,3.5,0,0,1-2-2.12,1.65,1.65,0,0,1,1.27-2l.13,0c1.39-.16,3.06,1.76,3.57,2.91,0,.1.55,1.73.53,1.73h0c.26.3.54.62.84,1,.55.67,1.16,1.43,1.77,2.31a31.78,31.78,0,0,1,1.84,2.92,21.77,21.77,0,0,1,1.56,3.53h0v-1.65c.16-1.25,1.2-3.56,2.59-3.81a1.66,1.66,0,0,1,1.9,1.38,1.1,1.1,0,0,1,0,.18,3.47,3.47,0,0,1-1.34,2.61,11.82,11.82,0,0,1-3.15,1.44,29.5,29.5,0,0,1,.92,3.82c.14.75.25,1.51.35,2.28v-.72c.16-1.25,1.2-3.56,2.59-3.81a1.66,1.66,0,0,1,1.9,1.38,1.1,1.1,0,0,1,0,.18,3.47,3.47,0,0,1-1.34,2.61,11.05,11.05,0,0,1-3.06,1.41,8.81,8.81,0,0,0,.11.88c.17,1.41.33,2.82.54,4.2q.11.72.24,1.44,0-.31,0-.63c.16-1.24,1.2-3.56,2.59-3.81a1.65,1.65,0,0,1,1.89,1.37,1.23,1.23,0,0,1,0,.19,3.43,3.43,0,0,1-1.33,2.61,10.62,10.62,0,0,1-3,1.38c.1.49.2,1,.32,1.44s.16.62.27.94l.3.92c.21.58.42,1.18.64,1.74q.23.59.45,1.14c-.07-.48-.2-1.43-.2-1.51a6.48,6.48,0,0,1,.86-3.15,2.16,2.16,0,0,1,0-.36,1.65,1.65,0,0,1,1.85-1.44l.15,0c1.36.37,2.22,2.75,2.29,4,0,.07-.05.88-.09,1.39.07-.3.13-.59.21-.89.14-.6.3-1.2.47-1.84.09-.31.19-.62.28-.93s.22-.63.33-.95c.27-.73.58-1.47.9-2.2a10.67,10.67,0,0,1-3.13-1.17,3.5,3.5,0,0,1-1.53-2.5,1.66,1.66,0,0,1,1.61-1.7H335c1.4.15,2.61,2.38,2.87,3.61,0,.07.09,1,.13,1.47.2-.44.4-.87.61-1.31.63-1.26,1.3-2.51,2-3.77l.6-1.15a11.46,11.46,0,0,1-3.25-1.2,3.48,3.48,0,0,1-1.53-2.5,1.67,1.67,0,0,1,1.62-1.71h.18c1.4.16,2.61,2.38,2.86,3.61,0,.1.14,1.4.16,1.73.44-.85.87-1.7,1.26-2.55a29.91,29.91,0,0,0,1.37-3.55,12,12,0,0,1-3.27-1.2,3.53,3.53,0,0,1-1.53-2.5,1.67,1.67,0,0,1,1.62-1.71h.18c1.4.15,2.61,2.38,2.87,3.61,0,.08.1,1.07.14,1.55H344a21.58,21.58,0,0,0,.71-3.75c.08-.7.12-1.37.14-2a10.81,10.81,0,0,1-3.31-.83,3.46,3.46,0,0,1-1.79-2.31,1.68,1.68,0,0,1,1.44-1.88l.16,0c1.41,0,2.86,2.08,3.25,3.28,0,.06.16.75.25,1.25v-.89c0-1.06-.07-2-.14-2.9a10.42,10.42,0,0,0-.14-1.34,11.54,11.54,0,0,1-2.53-2.25,3.46,3.46,0,0,1-.52-2.88,1.65,1.65,0,0,1,2.1-1l.19.08c1.25.64,1.58,3.16,1.37,4.4C345.1,262.36,344.63,264,344.61,264Z" transform="translate(7.12)"/><path class="cls-2" d="M288.09,262.86s-.63-2.3-.65-2.46c-.25-1.74.31-5.26,2.09-6.12a2.34,2.34,0,0,1,3.09,1.18,1.09,1.09,0,0,1,.09.23,4.88,4.88,0,0,1-.85,4C291,261,288.09,262.86,288.09,262.86Z" transform="translate(7.12)"/><path class="cls-2" d="M323.14,262.1c-1.42.61-4.88.54-4.89.54s.75-2.27.81-2.41c.76-1.59,3.17-4.22,5.13-4a2.34,2.34,0,0,1,1.93,2.68l-.06.25A4.85,4.85,0,0,1,323.14,262.1Z" transform="translate(7.12)"/><path class="cls-2" d="M317.76,255.07h0c.07.56.15,1.16.22,1.81.12,1.21.25,2.58.28,4.08a41.12,41.12,0,0,1-.11,4.84,32.2,32.2,0,0,1-.9,5.34v.07c.31-.49,1.22-1.83,1.31-1.92,1.15-1.33,4.16-3.23,6-2.46a2.33,2.33,0,0,1,1.12,3.1l-.12.22a4.85,4.85,0,0,1-3.58,2c-1.47.22-4.56-.68-4.81-.75a41.13,41.13,0,0,1-1.87,5.19c-.43,1-.89,2-1.36,2.94l.58-.83c1.15-1.33,4.17-3.23,6-2.46a2.35,2.35,0,0,1,1.11,3.12,1.28,1.28,0,0,1-.11.2,4.88,4.88,0,0,1-3.58,2,15.45,15.45,0,0,1-4.68-.72l-.55,1.12c-.89,1.78-1.8,3.55-2.63,5.32-.29.63-.56,1.25-.82,1.88.25-.37.46-.68.5-.72,1.15-1.34,4.16-3.23,6-2.46a2.33,2.33,0,0,1,1.12,3.1l-.12.22a4.88,4.88,0,0,1-3.58,2,14.35,14.35,0,0,1-4.55-.68c-.26.65-.51,1.3-.73,1.93-.14.44-.31.86-.42,1.31s-.25.88-.37,1.31c-.2.84-.41,1.71-.59,2.54-.13.58-.24,1.13-.35,1.68.28-.62.87-1.83.93-1.93.93-1.49,3.62-3.82,5.54-3.34a2.34,2.34,0,0,1,1.6,2.9,1.55,1.55,0,0,1-.08.23,4.83,4.83,0,0,1-3.23,2.53,15.71,15.71,0,0,1-4.84,0c-.18.91-.35,1.81-.5,2.65-.47,2.67-.78,4.93-1,6.62h-1.31c.24-1.72.61-4.06,1.16-6.83.18-.93.4-1.92.63-2.94a22.88,22.88,0,0,1-2.7-1.27,17.57,17.57,0,0,1-3.94,2.54c.35.86.7,1.7,1.05,2.49,1.06,2.45,2,4.5,2.81,6h-1.45c-.69-1.48-1.54-3.35-2.44-5.56-.36-.87-.73-1.82-1.1-2.79a16.33,16.33,0,0,1-4.83.37,4.85,4.85,0,0,1-3.41-2.29,2.33,2.33,0,0,1,1.06-3.12l.23-.1c1.87-.63,4.73,1.49,5.77,2.91.07.08.63,1.07,1,1.69-.15-.4-.3-.78-.44-1.19-.3-.82-.58-1.64-.87-2.52-.13-.43-.26-.87-.4-1.31s-.23-.91-.35-1.37c-.25-1.07-.46-2.16-.64-3.27a15,15,0,0,1-4.58,1.05,4.85,4.85,0,0,1-3.72-1.74,2.34,2.34,0,0,1,.57-3.26l.21-.13c1.76-.9,4.9.77,6.15,2,.08.08.88,1.07,1.3,1.63-.1-.67-.21-1.34-.29-2-.25-2-.43-4-.62-5.93-.06-.61-.13-1.22-.19-1.82-.26.09-3.26,1.21-4.74,1.11a4.91,4.91,0,0,1-3.72-1.74,2.34,2.34,0,0,1,.57-3.26l.21-.13c1.76-.91,4.91.76,6.15,2,.1.1,1.24,1.53,1.52,1.91-.15-1.34-.3-2.66-.5-4A42.07,42.07,0,0,0,291.6,271c-.12,0-3.25,1.23-4.76,1.12a4.88,4.88,0,0,1-3.72-1.74,2.34,2.34,0,0,1,.57-3.26l.21-.13c1.76-.91,4.9.76,6.15,2,.08.08.95,1.17,1.36,1.69h.1a30.27,30.27,0,0,0-2.07-5c-.45-.88-.93-1.69-1.41-2.47a15.32,15.32,0,0,1-4.51,1.58,4.86,4.86,0,0,1-3.89-1.32,2.33,2.33,0,0,1,.2-3.29l.2-.16c1.65-1.1,5,.22,6.34,1.31l1.27,1.27c-.23-.35-.45-.72-.67-1.05-.83-1.24-1.66-2.33-2.41-3.29-.42-.54-.82-1-1.2-1.47a15.38,15.38,0,0,1-4.71-.67,4.9,4.9,0,0,1-2.84-3,2.34,2.34,0,0,1,1.71-2.83l.24,0c2-.21,4.3,2.48,5,4.09.06.14.78,2.43.74,2.43h0c.37.42.76.87,1.18,1.38.77,1,1.63,2,2.49,3.25a42.6,42.6,0,0,1,2.57,4.1,30.84,30.84,0,0,1,2.2,5v-2.26c.23-1.75,1.69-5,3.63-5.35a2.33,2.33,0,0,1,2.67,1.95,1.07,1.07,0,0,1,0,.25,4.88,4.88,0,0,1-1.88,3.65,15,15,0,0,1-4.42,2,41.39,41.39,0,0,1,1.29,5.36c.19,1.06.35,2.13.49,3.2v-1c.23-1.75,1.69-5,3.63-5.35a2.33,2.33,0,0,1,2.67,1.95,1.07,1.07,0,0,1,0,.25,4.88,4.88,0,0,1-1.88,3.65,15.13,15.13,0,0,1-4.29,2c0,.42.11.83.15,1.24.24,2,.47,4,.75,5.89.1.69.22,1.35.34,2V289c.23-1.75,1.69-5,3.63-5.36a2.33,2.33,0,0,1,2.67,1.95,1.07,1.07,0,0,1,0,.25,4.9,4.9,0,0,1-1.88,3.66,15,15,0,0,1-4.17,1.94c.15.68.29,1.36.46,2,.13.45.22.88.37,1.32l.42,1.3c.29.81.59,1.66.9,2.44.21.55.43,1.07.64,1.6-.11-.68-.29-2-.29-2.12a9.16,9.16,0,0,1,1.21-4.42,4.34,4.34,0,0,1,0-.51,2.32,2.32,0,0,1,2.56-2l.29,0c1.91.5,3.12,3.85,3.21,5.61,0,.11-.06,1.24-.12,2,.1-.41.19-.81.29-1.24.2-.84.43-1.68.66-2.58.14-.43.27-.87.4-1.31s.31-.88.46-1.33c.38-1,.81-2.06,1.27-3.08a15.5,15.5,0,0,1-4.4-1.65,4.84,4.84,0,0,1-2.14-3.51,2.32,2.32,0,0,1,2.26-2.39,2.26,2.26,0,0,1,.26,0c2,.21,3.67,3.34,4,5.06,0,.11.14,1.38.19,2.08.28-.62.56-1.23.86-1.84.88-1.77,1.82-3.53,2.75-5.29.29-.54.57-1.08.85-1.62a16.17,16.17,0,0,1-4.56-1.69,4.84,4.84,0,0,1-2.14-3.51,2.32,2.32,0,0,1,2.26-2.39h.26c2,.22,3.66,3.34,4,5.07,0,.13.19,1.95.21,2.42.62-1.19,1.23-2.38,1.77-3.58a40.33,40.33,0,0,0,1.93-5,15.69,15.69,0,0,1-4.59-1.69,4.89,4.89,0,0,1-2.14-3.51,2.34,2.34,0,0,1,2.28-2.39,1.92,1.92,0,0,1,.24,0c2,.21,3.67,3.34,4,5.07,0,.11.15,1.5.2,2.16h.11a30.43,30.43,0,0,0,1-5.27c.11-1,.16-1.92.18-2.84a15.46,15.46,0,0,1-4.63-1.17,4.88,4.88,0,0,1-2.52-3.25,2.34,2.34,0,0,1,2-2.63l.24,0c2,0,4,2.92,4.55,4.59,0,.09.23,1.06.37,1.76v-1.24c0-1.5-.09-2.86-.19-4.07a14.9,14.9,0,0,0-.19-1.89,15.77,15.77,0,0,1-3.56-3.16,4.89,4.89,0,0,1-.73-4,2.31,2.31,0,0,1,3-1.42l.26.1c1.76.9,2.22,4.43,1.93,6.17A8.31,8.31,0,0,1,317.76,255.07Z" transform="translate(7.12)"/><path class="cls-2" d="M376.81,64.51s-39.33,17.34-32.66,18,17.33-4.66,17.33-4.66-23.33,15.33-18,17.33,10.67-5.33,10.67-5.33-20,30.66-9.34,29.33,20.67-24.67,20.67-24.67,0,17.34,4.67,12.67,8.66-15.33,8.66-15.33-.66,10,4.67,6.66,10-24,10-30S379.48,59.18,376.81,64.51Z" transform="translate(7.12)"/><path class="cls-2" d="M400.15,123.85s-61.34,20-60,24.66,14,.67,14,.67-29.34,14-24.67,18.67,20.67-4,20.67-4-32.67,30-25.34,31.33,21.67-6,21.67-6-21,24-16.33,28.67,16.66-10,16.66-10-2,16,4.67,13.33a47.19,47.19,0,0,0,12-7.33s-7.33,16,0,16.66,30-37.33,42.67-56.66S428.81,103.18,400.15,123.85Z" transform="translate(7.12)"/></g></g><g id="freepik--Rock--inject-229"><path class="cls-9" d="M182.09,308.18c-2-2.68-6-8.15-6.38-9-.57-1.13-4.24-7.63-4.81-10.17s-4.8-8.2-5.65-9.61-4.24-5.65-4.24-5.65-3.67-8.76-4.52-13-5.09-5.37-9-7.91-7.91-6.22-9-6.7-6.31-.37-7.44-.37-12.15-2-12.15-2-9-3.68-10.74-3.68H98.6c-1.41,0-4.8,2.83-4.8,2.83L81.08,254.79s-11.58,4-13.85,4.52-4.52,7.06-5.65,10.17-21.8,18.93-22.1,19.78c-.22.67-4.4,13.42-6.2,18.89Z" transform="translate(7.12)"/><path class="cls-10" d="M148,304.18l-5.63,4h39.74c-2-2.68-6-8.15-6.38-9-.57-1.13-4.24-7.63-4.81-10.17s-4.8-8.2-5.65-9.61-4.24-5.65-4.24-5.65-3.67-8.76-4.52-13-5.09-5.37-9-7.91a78.69,78.69,0,0,1-6.57-4.93l1.08,1.47,8.55,7.6.32,7,1.9,4.75s4.11,5.7,5.69,7.6-8.23,3.48-8.23,3.48l3.17,8.87,8.23,8.23-5.7,1.59Z" transform="translate(7.12)"/></g><g id="freepik--Character--inject-229"><path class="cls-11" d="M102.48,231.55s-.18,5.67,1.83,7.68,7.31,1.09,8.77.91a4.83,4.83,0,0,0,3.47-4.75,50.64,50.64,0,0,0-1.28-6.58S112.48,232.29,102.48,231.55Z" transform="translate(7.12)"/><path class="cls-12" d="M116,237.63c-8.11,1.93-12.47.32-12.47.32h-.06a4.26,4.26,0,0,0,.82,1.27c2,2,7.31,1.09,8.77.91A4.61,4.61,0,0,0,116,237.63Z" transform="translate(7.12)"/><path class="cls-9" d="M97.29,138.93s5.51,26.7,6.36,32.21-.43,11.45-1.7,15.68-2.33,17-1.69,22.26,1.48,11.87,1.48,13.77-.42,4,0,6.79l.42,2.75a38.48,38.48,0,0,0,7.42.64c2.76-.21,5.09-1.27,5.94-2.76s1.27-5.08,1.27-7-1.7-11.45-1.7-17,4-18.22,4.88-24.16a215.83,215.83,0,0,0,1.69-22c0-4.66-.42-10.81,0-11.44s.85-8.69.85-8.69a77,77,0,0,1-13.14-.85C103,138.08,100.26,137.23,97.29,138.93Z" transform="translate(7.12)"/><path class="cls-13" d="M119.28,172.65s2.63,4.68-2.64,11.71-13.47,16.4-13.76,23.72" transform="translate(7.12)"/><path class="cls-11" d="M114.13,231.74s-3.65,7.49-2.55,9.13,7.85,4.93,12,5.66a94.87,94.87,0,0,0,13.15.92c2.38,0,1.83-2,1.1-2.93s-6.39-5.29-7.67-6.39a27.26,27.26,0,0,1-2.73-2.95S116.33,231.55,114.13,231.74Z" transform="translate(7.12)"/><path class="cls-12" d="M124,245.26a35,35,0,0,1-12.59-5.88,2.32,2.32,0,0,0,.17,1.49c1.09,1.65,7.85,4.93,12,5.66a94.87,94.87,0,0,0,13.15.92c1.33,0,1.74-.63,1.72-1.34A36.93,36.93,0,0,1,124,245.26Z" transform="translate(7.12)"/><path class="cls-9" d="M113.61,141.68s14.41,27.77,16.32,32.43a10.62,10.62,0,0,1-.85,10,50.09,50.09,0,0,0-4.87,13.35,102.77,102.77,0,0,1-5.09,17.8c-1.91,4.46-6.15,11.66-5.72,13.14a32,32,0,0,1,.63,4.67s7,3.18,10,3.18,4.67,0,5.09-1.06,2.12-3.82,2.12-6.57-.64-4-.42-6.36,11.23-21.62,11.65-28,5.09-13.14,4.24-18.44-3.6-31.36-6.36-34.33S113.61,141.68,113.61,141.68Z" transform="translate(7.12)"/><line class="cls-14" x1="126.4" y1="154.2" x2="122.3" y2="148.05"/><path class="cls-14" d="M132.75,174.4s1.76,5,5.56,5.86a11,11,0,0,0,6.45-.29" transform="translate(7.12)"/><path class="cls-14" d="M133.63,181.18s4.39,2.93,8.78,1.75" transform="translate(7.12)"/><path class="cls-14" d="M127.19,225.94s-11.43,1.47-10,2.93,12.59-.58,12.59-.58" transform="translate(7.12)"/><path class="cls-6" d="M97.29,131.08a5.3,5.3,0,0,1-.1.87c-.33,2.89-1.35,12.1-1.17,12.28s4.24-4.46,9.11-2.34a37.69,37.69,0,0,0,16.74,3.61c7.42,0,12.51-2.55,15.9-2.55a38.49,38.49,0,0,1,8,1.28s-4.87-5.73-6.14-8.48a41.83,41.83,0,0,1-1.91-4.88s-18.23,0-27.55.43S97.29,131.08,97.29,131.08Z" transform="translate(7.12)"/><g class="cls-15"><path class="cls-2" d="M141.27,143.27c-.75-1.19-2-3.11-3.08-4.72a27.27,27.27,0,0,1,3-.35,21.93,21.93,0,0,1-1.2-1.91,28.77,28.77,0,0,0-3.07.46.76.76,0,0,0-.11-.14,6.8,6.8,0,0,1-1.08-5.73h-2a8.72,8.72,0,0,0,1.15,6.38c-.65.18-1.26.36-1.86.55a23.65,23.65,0,0,1-5.13,1.14c.07-.29.15-.58.23-.88.51-2,1.15-4.49,1.66-7.16h-2c-.49,2.47-1.08,4.77-1.56,6.65l-.36,1.4a23.33,23.33,0,0,1-5.24-1c-.54-.17-1.11-.3-1.68-.43a56.57,56.57,0,0,0,.37-6.51h-2a59.41,59.41,0,0,1-.34,6.11,44.53,44.53,0,0,0-8.94-.26,29.28,29.28,0,0,0,1-5.58l-2,.06a23.06,23.06,0,0,1-1.2,5.7,83,83,0,0,0-9.26,1.49c-.08.73-.15,1.44-.21,2.11a82.73,82.73,0,0,1,8.56-1.47c-.37.82-.73,1.56-1.08,2.23a6.75,6.75,0,0,1,1.39.42l.53.23c.46-.92.95-1.94,1.45-3.11a43.53,43.53,0,0,1,9.27.23c-.47,2.26-1,4.2-1.46,5.82.67.1,1.33.19,2,.27.47-1.62,1-3.52,1.42-5.74.49.11,1,.23,1.46.37a25.09,25.09,0,0,0,5.36,1,5.69,5.69,0,0,0-.12,1v3.4c.69-.07,1.36-.15,2-.25V141.9a5.62,5.62,0,0,1,.15-1,23,23,0,0,0,6.19-1.25c.8-.24,1.63-.49,2.53-.72.85,1.19,1.84,2.72,2.66,4A25.33,25.33,0,0,1,141.27,143.27Z" transform="translate(7.12)"/></g><path class="cls-16" d="M97.29,131.08a5.3,5.3,0,0,1-.1.87c-.33,2.89-1.35,12.1-1.17,12.28s4.24-4.46,9.11-2.34a37.69,37.69,0,0,0,16.74,3.61c7.42,0,12.51-2.55,15.9-2.55a38.49,38.49,0,0,1,8,1.28s-4.87-5.73-6.14-8.48a41.83,41.83,0,0,1-1.91-4.88s-18.23,0-27.55.43S97.29,131.08,97.29,131.08Z" transform="translate(7.12)"/><path class="cls-6" d="M133.74,74.71s10-.42,11.66.63,2.12,7.42,3.81,12.09a62.66,62.66,0,0,1,2.55,10s2.54-.85,3.6,6.14-1.06,11.66-3,14.41-4.87,4.67-12.5.85c0,0,1.91,4,1.91,5.94s-2.76,4-2.76,4a259.4,259.4,0,0,1-26.28,1.91c-13.35.21-15.68-1.06-16.32-3S95.35,96.1,96,88.05s6.36-14,10.6-15.47S133.74,74.71,133.74,74.71Z" transform="translate(7.12)"/><g class="cls-17"><path class="cls-2" d="M153.12,112.81a1.78,1.78,0,0,1-.6-.16,27.91,27.91,0,0,0,3.11-6.17,25.33,25.33,0,0,0-.27-3h0l-1-.12a21.3,21.3,0,0,1-3.27,7.72,11.24,11.24,0,0,1-.91-2.73,18.62,18.62,0,0,0,2.86-3.91l-1.75-1a14.79,14.79,0,0,1-1.54,2.29c-.18-1.55-.29-3.22-.34-4.88,1.4-.76,2.88-1.55,4.38-2.34-.88-1.33-1.76-1.26-2-1.22-.83.44-1.66.88-2.46,1.32V95a16.51,16.51,0,0,0-.09-1.72c.52-.17,1-.32,1.58-.44-.15-.62-.31-1.26-.5-1.93q-.69.15-1.38.36a37.06,37.06,0,0,0-2.19-7.14c.45-.17.9-.34,1.38-.5-.09-.37-.18-.73-.26-1.1l-.27-.83c-.57.18-1.11.38-1.64.59-.8-1.76-1.57-3.22-2.09-4.15a11.37,11.37,0,0,1,2-.46l-.22-2a16.5,16.5,0,0,0-7.33,3.14v-.13L136,78a17.94,17.94,0,0,1,2.73-2.64l-.59-.85h-1.54a24.23,24.23,0,0,0-2.74,2.9l-5.1-1.4a6.75,6.75,0,0,1,2.1-1.84l-2.75-.39a10.18,10.18,0,0,0-1.39,1.68l-4-1.07.55-1.23-2.1-.25c-.13.31-.27.62-.41,1-1.6-.43-3.08-.81-4.3-1.12l.16-.29a48.35,48.35,0,0,0-9.16-.2c2.14.66,4.24,1.28,6,1.78-.5,1-1,2.07-1.54,3.26a69.48,69.48,0,0,1-10.24-1.61,19.17,19.17,0,0,0-1.54,1.71,80.44,80.44,0,0,0,11,1.85,57.51,57.51,0,0,0-2.72,8.59c-4.13-.81-8.45-1.86-12-2.78-.15.65-.26,1.31-.35,2,3.55.91,7.82,1.94,11.94,2.76a46.22,46.22,0,0,0-.71,5.73l-.94-.26c-3.44-1-6.42-1.76-8.33-1.76a16,16,0,0,1-2.29-.23v2a16.55,16.55,0,0,0,2.33.22c1.64,0,4.63.82,7.8,1.69l1.41.38v1.93c-3.58-1.22-6.7-2.17-9.17-2.17-.76,0-1.55,0-2.35-.07v2c.8,0,1.6.07,2.37.07,2.29,0,5.6,1.06,9.16,2.28v3.92c-1.8-.7-3.57-1.42-5.25-2.1-2.34-1-4.45-1.8-6.29-2.48v2.13c1.71.64,3.61,1.41,5.55,2.2s4,1.61,6,2.41c0,1.15,0,2.31,0,3.45v.87l-11.58-2.54v2l11.61,2.62c0,3.14.07,6.25,0,9.18A99.57,99.57,0,0,1,96,121.44c0,.75.05,1.44.08,2.07a104,104,0,0,0,11.24,1.84c-.06,1.88-.16,3.65-.31,5.27h2c.14-1.58.24-3.29.3-5.1,2.71.24,5.33.38,7.86.44v4.52l2-.09V126c3.23,0,6.31,0,9.25-.14-.14,1.34-.35,2.67-.58,4l2.06-.17c.22-1.27.41-2.56.54-3.87,1.7,0,3.29-.07,4.76,0a5.78,5.78,0,0,1-.55,2,13.55,13.55,0,0,0-.61,1.48l2.25-.24a.88.88,0,0,1,.15-.35,7.8,7.8,0,0,0,.77-2.89c1.58.05,3,.13,4.18.23a3,3,0,0,0,.39-1.34c0-.22,0-.43-.06-.65-1.3-.11-2.82-.2-4.54-.25a22.09,22.09,0,0,0-1-4.4,7.18,7.18,0,0,0,4.23-1.58c.36.6.74,1.16,1.13,1.7a17,17,0,0,0,3.74,1.19c.86-.74,1.67-1.49,2.41-2.22a9,9,0,0,0,2,1.89,4.13,4.13,0,0,0,.65-.36l.7-1.14a6.67,6.67,0,0,1-1.92-1.86,35.09,35.09,0,0,0,2.27-2.74,3.88,3.88,0,0,0,1.59.49,4.34,4.34,0,0,0,.51,0h.7a17.45,17.45,0,0,0,.78-2.24A3.85,3.85,0,0,1,153.12,112.81ZM148,107.72a19.3,19.3,0,0,1-2,1.61,55,55,0,0,1-.94-6l2.34-1.3a45.17,45.17,0,0,0,.6,5.69Zm-.66-12.66v4.71l-2.42,1.41c-.14-1.82-.22-3.77-.25-5.81.86-.45,1.74-.88,2.63-1.25C147.32,94.4,147.34,94.74,147.34,95.06Zm-.29-3c-.82.32-1.63.68-2.42,1.07a21.86,21.86,0,0,0-1.44-7.19c.54-.32,1.11-.62,1.72-.92a35.52,35.52,0,0,1,2.14,7ZM142,79c.49.86,1.28,2.36,2.13,4.21-.61.28-1.2.58-1.75.89a20.55,20.55,0,0,0-2.48-3.85,14.13,14.13,0,0,1,2.1-1.3Zm.7,17.51c0,1.89.14,3.84.3,5.77-1.47.83-2.79,1.58-3.89,2.22,0-1.71-.16-3.53-.34-5.38a43,43,0,0,1,3.93-2.66Zm-4.17.31c-.24-2.18-.54-4.34-.85-6.32a21.66,21.66,0,0,1,3.79-3.43,19.85,19.85,0,0,1,1.2,6.78v.35c-1.52.82-2.93,1.73-4.18,2.57Zm-.16-15.25a18.59,18.59,0,0,1,2.29,3.6,24.53,24.53,0,0,0-3.39,2.79c-.26-1.58-.51-2.94-.71-4a11.7,11.7,0,0,1,1.81-2.44Zm-3.64-1.68,2,.55a14,14,0,0,0-1.15,1.4l-1.4.29.08.42-1-.34a26,26,0,0,1,1.47-2.37Zm.21,9c.06-.46.14-.91.23-1.33.13.73.26,1.5.38,2.32q-.43.57-.78,1.08a14.61,14.61,0,0,1,.11-1.66l.18-.06Zm-.47-5.25a15.35,15.35,0,0,0-1.37,4.1c-.55.15-1.26.32-2.12.51v-.15a25,25,0,0,1,1.38-4.1l1.57.55.45-1.24a.57.57,0,0,1,.11.3Zm-6.75-5.68,4.94,1.35c-.45.68-.89,1.42-1.32,2.23-1.26-.41-2.8-.9-4.49-1.39a17.62,17.62,0,0,1,.87-2.22ZM125.84,86a30,30,0,0,1,.51-4c1.53.44,2.94.89,4.12,1.27a26.73,26.73,0,0,0-1.42,4.27c-.07.33-.13.67-.19,1-.93.16-2,.3-3.09.43,0-1,0-2,.07-3Zm2.64,11.36-2,.11c-.32-2.17-.55-4.34-.66-6.47,1-.1,1.87-.22,2.71-.35A37.6,37.6,0,0,0,128.48,97.4Zm.17,2c.15,1.42.36,2.82.6,4.19l-1.66.15c-.27-1.4-.52-2.81-.76-4.23Zm-6.6-23,3.73,1a19.15,19.15,0,0,0-.83,2.18c-1.22-.33-2.48-.65-3.74-.94.27-.82.54-1.57.82-2.26Zm2.4,5.12a30.93,30.93,0,0,0-.59,4.38c-.07,1.09-.08,2.21-.06,3.33-1.37.1-2.83.17-4.4.17h-.86a50.38,50.38,0,0,1,2-8.83c1.31.25,2.62.61,3.94.93Zm-8.87-6.81h.17l4.34,1.13c-.29.73-.58,1.51-.87,2.33a40.09,40.09,0,0,0-5-.7c.45-1,.91-1.94,1.34-2.78Zm-5.52,15.61c2.23.41,4.38.73,6.28.91,0,.42,0,.84-.07,1.26-.06,1.48-.06,3.24,0,5.2a60.36,60.36,0,0,1-6.89-1.48A41.91,41.91,0,0,1,110,90.3Zm-.76,8a57.58,57.58,0,0,0,7,1.45c0,.93,0,1.9.08,2.89-2.4-.66-4.81-1.48-7.1-2.27,0-.73,0-1.41,0-2.09Zm0,4.18c2.32.8,4.74,1.61,7.18,2.25,0,1.39.11,2.82.17,4.27-2.41-.71-4.89-1.58-7.33-2.5-.08-1.37-.08-2.71-.08-4Zm.08,8.82v-2.66c2.47.92,5,1.78,7.4,2.47v.1c0,1,.09,2.06.13,3.1l-7.47-1.69a5.87,5.87,0,0,1-.12-1.34Zm.06,12.34v-8.93c2.57.57,5.12,1.14,7.52,1.7.11,2.6.2,5.19.26,7.68-2.59-.09-5.17-.23-7.84-.47Zm7-34.43c-1.82-.17-3.89-.49-6.06-.88a57.9,57.9,0,0,1,2.89-8.88,31.56,31.56,0,0,1,5.22.65A51.74,51.74,0,0,0,116.48,89.18Zm1.73,3.32a6.85,6.85,0,0,1,.07-1.19h1.06c1.59,0,3.08-.07,4.46-.17.12,2.13.34,4.28.65,6.42l-4.32.27a15.86,15.86,0,0,1-1.95,0c0-2,0-3.78.07-5.29Zm0,7.34h2.06l4.51-.27c.24,1.44.49,2.86.77,4.27a25.38,25.38,0,0,1-7.21-.79c0-1.06,0-2.13-.08-3.17Zm.27,5.34a29.09,29.09,0,0,0,6.17.76,10.17,10.17,0,0,0,1.35-.06l.65,3.19c.12.54.23,1.08.34,1.61h-.76a30.92,30.92,0,0,1-7.58-1.16C118.55,108,118.48,106.58,118.48,105.18Zm.26,6.43a32.16,32.16,0,0,0,7.49,1.07h1.16c.29,1.47.56,2.89.77,4.22-.91-.17-1.9-.38-3-.64-1.88-.46-4-1-6.32-1.49,0-1.07-.1-2.12-.14-3.17Zm9.88,12.31c-3,.12-6.18.19-9.43.16-.06-2.33-.14-4.77-.24-7.25,2.09.48,4,.94,5.77,1.36,1.35.33,2.59.59,3.73.79.09.74.16,1.46.19,2.12a26.3,26.3,0,0,1-.06,2.81Zm0-15.26c-.2-1-.4-2-.61-3l1.65-.15c.38,1.8.8,3.49,1.24,5l-1.87.08c-.18-.66-.32-1.32-.46-2Zm1.63,8.58c-.22-1.45-.5-3-.82-4.61.77,0,1.45-.06,2.07-.1.37,1.15.73,2.16,1.06,3s.57,1.38.84,2.06c-.92-.05-2-.14-3.2-.31Zm.39,6.62c0-1,.06-1.92,0-2.86,0-.54-.08-1.12-.14-1.71a29.4,29.4,0,0,0,3.63.26,22.26,22.26,0,0,1,1.08,4.25c-1.45,0-3,0-4.62,0Zm8.72-7.83s-.6,1.2-3.83,1.47c-.35-.91-.73-1.84-1.12-2.79-.27-.64-.56-1.45-.87-2.37,3.22-.41,3.54-1.1,3.74-1.54a1.24,1.24,0,0,0-.2-1.35l-1.6,1.3a.79.79,0,0,1-.18-.56.62.62,0,0,1,.18-.38,6.63,6.63,0,0,1-2.63.58c-.44-1.5-.87-3.2-1.26-5l2.36-.22c.46,0,.84-.09,1.15-.14.74-.13,1-.36,1-1l-1-1v1h0l-.15-1c-.07,0-.56.07-3.72.37-.25-1.34-.45-2.72-.61-4.11l4.13-.24-.11-2-4.2.24a35.89,35.89,0,0,1,.14-7c.86-.17,1.59-.34,2.21-.5,0,.6-.07,1.2-.07,1.84h1.53a11.73,11.73,0,0,0-.91,1.76l1.86.73a11.53,11.53,0,0,1,.76-1.43c.25,1.74.48,3.57.68,5.39-1.26.95-2.07,1.64-2.18,1.73l1.31,1.52s.42-.36,1.09-.89c.14,1.79.23,3.53.24,5.12l-1.64,1,1,1.71.71-.42a23.61,23.61,0,0,0,1,5.14c-.67.17-1.09.25-1.11.25l.33,2a10.92,10.92,0,0,0,1.47-.34c.17.4.34.8.53,1.17Zm.81-3.63a22.35,22.35,0,0,1-1-5.68c1.09-.63,2.46-1.42,4.06-2.32a52.39,52.39,0,0,0,1,6.1,25,25,0,0,1-4.11,1.89Zm3.74,6.93a21.49,21.49,0,0,1-3-5,26.44,26.44,0,0,0,4-1.77,21.3,21.3,0,0,0,1.76,4.28c-.93.79-1.83,1.63-2.81,2.48Zm4.14-4.08a22.36,22.36,0,0,1-1.42-3.81,21.23,21.23,0,0,0,1.93-1.46,10,10,0,0,0,1.35,3c-.58.72-1.22,1.48-1.91,2.26Z" transform="translate(7.12)"/><path class="cls-16" d="M151.76,97.39S153,105.65,153,108.2" transform="translate(7.12)"/></g><path class="cls-16" d="M133.74,74.71s10-.42,11.66.63,2.12,7.42,3.81,12.09a62.66,62.66,0,0,1,2.55,10s2.54-.85,3.6,6.14-1.06,11.66-3,14.41-4.87,4.67-12.5.85c0,0,1.91,4,1.91,5.94s-2.76,4-2.76,4a259.4,259.4,0,0,1-26.28,1.91c-13.35.21-15.68-1.06-16.32-3S95.35,96.1,96,88.05s6.36-14,10.6-15.47S133.74,74.71,133.74,74.71Z" transform="translate(7.12)"/><path class="cls-18" d="M139.36,55.55s3.77-.61,4,1.09c.29,2.39.5,3.74-1.9,4.09S138.48,57.44,139.36,55.55Z" transform="translate(7.12)"/><path class="cls-11" d="M140.24,53s-.86,2.75-.17,4.3,1.55,6,.86,8.24-2.75,6-4.47,6.53-5-1.21-5.49-1.55,3.09-4.29,1.2-5.15-2.58-6.7-1-8.59a11.7,11.7,0,0,1,4.29-2.92Z" transform="translate(7.12)"/><path class="cls-18" d="M117.57,59.39a.73.73,0,0,1,.32.6c0,.43-.23,1.11-1.35,2.14-2.23,2.07-4.47,3.44-4.47,6s1.38,2.4,8.76,4.46,15-1.89,15.46-5.49-3.78-5-3.09-7.39a18.86,18.86,0,0,1,1.89-4.29s-7.21,2.06-10.48,2.06S117.25,58.78,117.57,59.39Z" transform="translate(7.12)"/><path class="cls-19" d="M115.68,45.82s-1.2,4-.51,5.32,2.06,7.39,2.4,8.25,6.7-.69,11.51-1,16-6.19,17.52-8.08,1.72-1.71-.69-1.71-6.7.34-6.7.34-2.75-5.67-5.49-7.73-7.9-2.4-10.48-1.72-7.56,4.12-8.07,5.33S115.68,45.82,115.68,45.82Z" transform="translate(7.12)"/><path class="cls-11" d="M131.15,58c5.38-1.38,14.1-6.05,15.45-7.71,1.54-1.89,1.72-1.71-.69-1.71s-6.7.34-6.7.34S135,55.85,131.15,58Z" transform="translate(7.12)"/><path class="cls-16" d="M115.68,45.82a12.59,12.59,0,0,0,5.15-.17" transform="translate(7.12)"/><line class="cls-16" x1="139.81" y1="58.18" x2="150.44" y2="56.1"/><path class="cls-19" d="M109.16,70.05a16.11,16.11,0,0,1,8.26-.64c4.67.85,15,3.6,18.65,4s2.12,1.06-.63,2.12-8,4.24-11,5.3S109,78.28,106.21,76.37,106.24,72,109.16,70.05Z" transform="translate(7.12)"/><path class="cls-16" d="M139.89,118.79a20,20,0,0,1-3.6-8.69c-.64-4.87-2.33-15.89-2.55-18.44s-.63-5.08,1.06-6.35" transform="translate(7.12)"/><path class="cls-18" d="M140.73,127.93s-.2,3.37-1.26,4.85-6.79,1.27-16.11,1.7a160.27,160.27,0,0,1-24.59-.85c-4.24-.64-1.69-5.94-1.27-7.63s6.15,1.06,18.44.63S140.73,127.18,140.73,127.93Z" transform="translate(7.12)"/><polygon class="cls-18" points="132.26 78.48 144.1 74.56 145.33 74.66 133.5 81.94 132.26 78.48"/><path class="cls-19" d="M123.57,76s-3.39-4.45-12.72-4.45-19.07,3.6-22,8a10,10,0,0,0-1.06,8.91s-4.66,22.25-7,28.61S81,129,88.42,133.42s22.68,8.26,29.25,5.29,9.75-9.74,9.32-14.83-1.69-14.62-1.91-20.77,4.67-13.35,3.39-19.29S123.57,76,123.57,76Z" transform="translate(7.12)"/><path class="cls-18" d="M112.4,133c-9.73,0-17.47-3.74-24.71-6-6-1.86-5,1.25-4.44,2.37a23,23,0,0,0,5.14,4.06c7.42,4.45,22.68,8.26,29.25,5.29a16.12,16.12,0,0,0,8.86-10.4A21.82,21.82,0,0,1,112.4,133Z" transform="translate(7.12)"/><path class="cls-6" d="M109.58,84s-8.9,26.07-3.81,32.43,17.16,10.6,18.65,7.21-4.88-18-2.55-25.22,4.88-9.33,3-12.51S112.55,79.37,109.58,84Z" transform="translate(7.12)"/><path class="cls-6" d="M103,89.12S98.35,112,96.23,116.67s-12.5,4.24-12.93-1.48,6.36-26.49,6.57-27.34S103,89.12,103,89.12Z" transform="translate(7.12)"/><path class="cls-20" d="M93.15,88s3,2.13,1,4.54-5.53,2.55-6.8,4.67,4.82,5.82,4.11,7.52-7.37,3.54-7.37,5.81,11.48,5.39,12.9,3.54-3.55-6.94-3.26-9.49,5.67-2.41,6.8-5.82S96.7,94.66,96.7,93s3.41-4.25,3.41-4.25" transform="translate(7.12)"/><path class="cls-18" d="M123.57,76s-3.39-4.45-12.72-4.45-19.07,3.6-22,8a10,10,0,0,0-1.06,8.91,13.14,13.14,0,0,0,10,4c6.36-.21,11.24-3.81,14.63-5.08s9.32,1.48,13.14,1.48a5.1,5.1,0,0,0,3-1.18,11.41,11.41,0,0,0-.08-3.91C127.17,77.89,123.57,76,123.57,76Z" transform="translate(7.12)"/></g></g></g></svg>